<?xml version="1.0" encoding="utf-8"?>
<!-- Generator: Adobe Illustrator 16.0.0, SVG Export Plug-In . SVG Version: 6.00 Build 0)  -->
<!DOCTYPE svg PUBLIC "-//W3C//DTD SVG 1.1//EN" "http://www.w3.org/Graphics/SVG/1.1/DTD/svg11.dtd">
<svg version="1.1" id="Layer_1" xmlns="http://www.w3.org/2000/svg" xmlns:xlink="http://www.w3.org/1999/xlink" x="0px" y="0px"
	 width="150px" height="225px" viewBox="0 0 150 225" enable-background="new 0 0 150 225" xml:space="preserve">
<path fill="#FFFFFF" stroke="#000000" stroke-miterlimit="10" d="M148.19,212.017c0,6.476-5.25,11.726-11.726,11.726H13.35
	c-6.476,0-11.725-5.25-11.725-11.726V15.619c0-6.476,5.25-11.725,11.725-11.725h123.115c6.476,0,11.726,5.25,11.726,11.725V212.017z
	"/>
<g>
	<g>
		<path fill="#8B6439" d="M115.608,145.455c0.376-2.652-0.265-5.359-1.96-7.49c6.308-8.398,8.733-19.566,8.733-31.79
			c0-9.339-2.715-18.044-7.396-25.371c2.234-2.615,10.898-10.764,2.67-18.298c-8.461-7.747-18.911,0.421-20.604,1.845
			c-6.533-3.419-13.965-5.356-21.85-5.356c-10.11,0-19.478,3.182-27.156,8.596c-3.194-2.343-11.637-9.137-18.059-0.624
			c-5.81,7.702-0.281,15.736,2.563,19.019c-2.902,6.122-4.528,12.966-4.528,20.19c0,14.846,3.229,28.042,12.894,36.676
			c-0.572,1.221-0.891,2.568-0.891,3.986c0,1.107,0.196,2.172,0.554,3.168l-1.191,2.783l2.495-0.334
			c1.095,1.494,2.613,2.697,4.395,3.459l0.853,2.656l1.684-1.91c0.632,0.107,1.279,0.166,1.944,0.166
			c1.543,0,3.009-0.305,4.334-0.852l2.702,1.541l-0.061-3.09c0.903-0.721,1.676-1.576,2.281-2.535
			c4.47,0.934,9.51,1.443,15.188,1.465c8.253,0.033,15.192-1.053,20.994-3.055c0.364,0.641,0.806,1.246,1.331,1.803
			c0.759,0.805,1.634,1.436,2.576,1.914l1.047,2.85l1.587-1.959c1.817,0.336,3.743,0.158,5.559-0.508l2.453,1.35l-0.088-2.551
			c0.531-0.355,1.045-0.752,1.526-1.207c1.122-1.061,1.978-2.289,2.566-3.596l3.021-0.738L115.608,145.455z"/>
		<g>
			<path fill="#010101" d="M121.608,145.455c0.249-3.844-0.648-7.307-2.779-10.518c0,2.018,0,4.037,0,6.057
				c12.803-17.832,12.649-44.82,1.338-63.218c-0.313,2.424-0.625,4.848-0.938,7.271c3.025-3.436,5.603-6.742,7.222-11.075
				c2.339-6.259-1.026-12.835-5.834-16.753c-8.69-7.083-19.97-3.544-27.807,2.891c2.423-0.313,4.847-0.626,7.271-0.938
				c-17.735-8.877-38.561-7.992-55.063,3.239c2.019,0,4.038,0,6.057,0c-7.7-5.688-16.515-8-24.242-0.967
				c-8.984,8.179-5.225,20.771,1.477,28.784c-0.313-2.423-0.626-4.847-0.938-7.271c-9.031,19.973-7.494,48.456,9.304,64.137
				c-0.515-1.945-1.029-3.891-1.544-5.836c-1.318,3.428-1.274,6.822-0.337,10.344c0.202-1.541,0.403-3.082,0.605-4.623
				c-0.397,0.928-0.795,1.854-1.191,2.781c-1.526,3.564,0.103,9.707,5.181,9.029c0.832-0.111,1.663-0.223,2.495-0.334
				c-1.414-0.586-2.828-1.172-4.242-1.758c1.583,1.875,3.422,3.287,5.608,4.398c-0.919-1.195-1.838-2.391-2.758-3.586
				c0.284,0.885,0.568,1.77,0.853,2.654c1.297,4.039,6.895,6.203,10.028,2.648c0.562-0.637,1.123-1.273,1.684-1.91
				c-1.414,0.586-2.828,1.172-4.242,1.758c2.685,0.344,5.319-0.035,7.873-0.898c-1.541-0.203-3.082-0.404-4.623-0.605
				c0.9,0.514,1.802,1.027,2.702,1.539c3.882,2.213,9.119-0.568,9.028-5.18c-0.021-1.031-0.04-2.061-0.061-3.09
				c-0.586,1.414-1.172,2.828-1.758,4.242c1.248-1.174,2.188-2.387,3.22-3.75c-2.259,0.92-4.517,1.838-6.775,2.758
				c12.893,2.523,26.801,2.531,39.371-1.588c-2.259-0.92-4.517-1.84-6.775-2.758c1.624,2.502,3.518,4.305,6.06,5.869
				c-0.919-1.195-1.838-2.391-2.758-3.586c0.35,0.949,0.698,1.898,1.047,2.848c1.391,3.783,6.929,6.473,10.028,2.648
				c0.529-0.652,1.059-1.305,1.587-1.959c-1.414,0.586-2.828,1.172-4.242,1.758c2.457,0.277,4.787-0.021,7.153-0.721
				c-1.541-0.203-3.082-0.404-4.623-0.605c0.817,0.449,1.636,0.898,2.453,1.348c3.85,2.117,9.189-0.498,9.028-5.18
				c-0.029-0.85-0.059-1.701-0.088-2.551c-0.99,1.727-1.981,3.455-2.972,5.182c2.65-1.92,4.699-4.041,6.245-6.957
				c-1.195,0.92-2.391,1.838-3.586,2.758c1.008-0.246,2.015-0.492,3.021-0.736c4.453-1.088,5.734-6.891,2.647-10.029
				c-0.722-0.734-1.444-1.469-2.167-2.203c-5.432-5.525-13.912,2.965-8.484,8.484c0.722,0.734,1.444,1.469,2.167,2.203
				c0.882-3.342,1.765-6.686,2.647-10.027c-6.268,1.529-11.659,7.262-11.432,13.877c3.01-1.727,6.019-3.455,9.028-5.182
				c-5.405-2.971-12.781-2.988-16.869,2.057c3.343,0.881,6.686,1.764,10.028,2.646c-0.35-0.949-0.698-1.898-1.047-2.848
				c-0.956-2.602-3.152-3.055-4.513-5.15c-1.418-2.188-4.147-3.619-6.775-2.758c-10.511,3.445-22.173,3.705-32.992,1.588
				c-2.925-0.572-5.023,0.447-6.775,2.758c-2.421,3.193-3.117,4.695-3.04,8.654c3.01-1.727,6.019-3.455,9.028-5.182
				c-2.981-1.699-5.16-2.877-8.695-1.682c-2.181,0.738-4.152-0.455-6.342,0.828c-1.184,0.693-2.009,1.838-2.897,2.848
				c3.343,0.881,6.686,1.764,10.028,2.646c-1.864-5.805-7.106-11.043-13.528-10.186c1.727,3.01,3.454,6.018,5.181,9.027
				c0.397-0.928,0.795-1.854,1.191-2.781c1.29-3.012-0.196-5.629,0.942-8.588c0.729-1.893-0.109-4.498-1.544-5.838
				c-12.615-11.779-14.275-34.452-7.427-49.596c1.208-2.672,0.956-5.006-0.938-7.271c-3.036-3.632-5.31-9.354-0.432-12.668
				c2.415-1.64,6.885,2.388,8.656,3.696c1.592,1.176,4.455,1.091,6.057,0c12.876-8.763,28.893-10.274,42.949-3.239
				c2.622,1.313,5.051,0.885,7.271-0.938c2.089-1.714,7.04-4.517,10.747-2.775c5.949,2.794,1.443,7.63-1.297,10.744
				c-1.767,2.005-2.414,4.87-0.938,7.271c9.26,15.063,9.096,36.574-1.338,51.105c-1.168,1.627-1.086,4.42,0,6.057
				c1.082,1.631,1.267,2.512,1.141,4.461C109.107,153.186,121.11,153.137,121.608,145.455z"/>
		</g>
	</g>
	<g>
		<polygon fill="#C7B199" stroke="#010101" points="40.847,149.656 39.571,152.633 42.76,152.207 		"/>
		<polygon fill="#C7B199" stroke="#010101" points="46.324,155.332 47.314,158.414 49.441,156.002 		"/>
		<polygon fill="#C7B199" stroke="#010101" points="55.166,155.756 57.979,157.359 57.915,154.143 		"/>
		<polygon fill="#C7B199" stroke="#010101" points="100.219,153.672 101.335,156.711 103.359,154.211 		"/>
		<polygon fill="#C7B199" stroke="#010101" points="108.097,154.033 110.934,155.594 110.822,152.379 		"/>
		<polygon fill="#C7B199" stroke="#010101" points="114.814,148.27 117.96,147.502 115.705,145.209 		"/>
	</g>
	<linearGradient id="SVGID_1_" gradientUnits="userSpaceOnUse" x1="52.4917" y1="143.5215" x2="47.1787" y2="154.3599">
		<stop  offset="0" style="stop-color:#AF9673"/>
		<stop  offset="0.5" style="stop-color:#927449"/>
		<stop  offset="1" style="stop-color:#7F5A24"/>
	</linearGradient>
	<ellipse fill="url(#SVGID_1_)" stroke="#010101" cx="50.941" cy="146.682" rx="10.732" ry="9.988"/>
	<linearGradient id="SVGID_2_" gradientUnits="userSpaceOnUse" x1="53.5576" y1="140.999" x2="48.291" y2="151.743">
		<stop  offset="0" style="stop-color:#AF9673"/>
		<stop  offset="0.5" style="stop-color:#927449"/>
		<stop  offset="1" style="stop-color:#7F5A24"/>
	</linearGradient>
	<ellipse opacity="0.4" fill="url(#SVGID_2_)" cx="52.021" cy="144.131" rx="10.29" ry="9.99"/>
	<linearGradient id="SVGID_3_" gradientUnits="userSpaceOnUse" x1="104.3223" y1="142.3047" x2="108.9975" y2="151.2301">
		<stop  offset="0" style="stop-color:#AF9673"/>
		<stop  offset="0.5" style="stop-color:#927449"/>
		<stop  offset="1" style="stop-color:#7F5A24"/>
	</linearGradient>
	<path fill="url(#SVGID_3_)" stroke="#010101" d="M113.312,137.203c3.789,4.01,3.369,10.561-0.939,14.633
		c-4.308,4.07-10.872,4.121-14.661,0.111c-3.788-4.01-3.367-10.561,0.94-14.631C102.96,133.244,109.522,133.195,113.312,137.203z"/>
	<linearGradient id="SVGID_4_" gradientUnits="userSpaceOnUse" x1="105.7373" y1="139.3574" x2="100.8325" y2="149.3633">
		<stop  offset="0" style="stop-color:#AF9673"/>
		<stop  offset="0.5" style="stop-color:#927449"/>
		<stop  offset="1" style="stop-color:#7F5A24"/>
	</linearGradient>
	<ellipse opacity="0.4" fill="url(#SVGID_4_)" cx="104.308" cy="142.273" rx="9.825" ry="9.244"/>
	<linearGradient id="SVGID_5_" gradientUnits="userSpaceOnUse" x1="27.6182" y1="75.0059" x2="49.4673" y2="75.0059">
		<stop  offset="0" style="stop-color:#AF9673"/>
		<stop  offset="0.5" style="stop-color:#927449"/>
		<stop  offset="1" style="stop-color:#7F5A24"/>
	</linearGradient>
	<path fill="url(#SVGID_5_)" stroke="#010101" d="M34.193,87.365c0,0-11.563-10.558-4.021-20.555
		c7.541-9.996,17.872,1.118,19.213,1.341C50.726,68.375,35.311,84.684,34.193,87.365z"/>
	<path fill="#333333" d="M35.448,84.48c0,0-7.794-8.619-2.889-14.763c4.563-5.716,12.837,0.802,13.8,0.963
		C47.322,70.84,36.25,82.553,35.448,84.48z"/>
	<path fill="#F27B7D" d="M37.339,85.686c0,0-7.794-8.619-2.89-14.763c4.563-5.716,12.838,0.802,13.801,0.963
		C49.213,72.046,38.141,83.76,37.339,85.686z"/>
	<path opacity="0.2" fill="#FFFFFF" d="M38.613,86.961c0,0-7.793-8.619-2.889-14.764c4.563-5.715,12.837,0.803,13.801,0.964
		C50.487,73.322,39.416,85.035,38.613,86.961z"/>
	<linearGradient id="SVGID_6_" gradientUnits="userSpaceOnUse" x1="96.9971" y1="70.2402" x2="121.3174" y2="70.2402">
		<stop  offset="0" style="stop-color:#AF9673"/>
		<stop  offset="0.5" style="stop-color:#927449"/>
		<stop  offset="1" style="stop-color:#7F5A24"/>
	</linearGradient>
	<path fill="url(#SVGID_6_)" stroke="#010101" d="M96.997,64.401c0,0,11.607-10.507,20.843-2.051
		c9.236,8.457-2.809,17.686-3.158,18.999S99.561,65.768,96.997,64.401z"/>
	<path fill="#333333" d="M99.389,65.702c0,0,10.021-6.982,15.566-0.879c5.159,5.681-2.784,13.481-3.096,14.479
		C111.548,80.297,101.238,66.836,99.389,65.702z"/>
	<path fill="#F27B7D" d="M98.348,67.931c0,0,9.319-6.939,14.97-1.474c5.257,5.086-2.018,12.703-2.269,13.646
		S100.188,68.913,98.348,67.931z"/>
	<path opacity="0.2" fill="#FFFFFF" d="M97.491,68.275c0,0,9.795-6.252,15.038-0.395c4.878,5.451-2.925,12.525-3.245,13.448
		C108.967,82.251,99.257,69.385,97.491,68.275z"/>
	<linearGradient id="SVGID_7_" gradientUnits="userSpaceOnUse" x1="75.3862" y1="54.6255" x2="75.3862" y2="122.2081">
		<stop  offset="0" style="stop-color:#AF9673"/>
		<stop  offset="0.5" style="stop-color:#927449"/>
		<stop  offset="1" style="stop-color:#7F5A24"/>
	</linearGradient>
	<path fill="url(#SVGID_7_)" stroke="#010101" d="M122.566,106.02c0,26.056-11.021,47.32-47.18,47.179
		c-37.244-0.146-47.181-21.123-47.181-47.179c0-26.058,21.123-47.182,47.181-47.182C101.442,58.838,122.566,79.962,122.566,106.02z"
		/>
	<linearGradient id="SVGID_8_" gradientUnits="userSpaceOnUse" x1="75.3862" y1="56.5176" x2="75.3862" y2="121.6138">
		<stop  offset="0" style="stop-color:#AF9673"/>
		<stop  offset="0.5" style="stop-color:#927449"/>
		<stop  offset="1" style="stop-color:#7F5A24"/>
	</linearGradient>
	<path opacity="0.4" fill="url(#SVGID_8_)" d="M122.566,106.021c0,25.098-11.021,45.581-47.18,45.444
		c-37.244-0.141-47.181-20.346-47.181-45.444c0-25.099,21.123-45.445,47.181-45.445C101.442,60.576,122.566,80.922,122.566,106.021z
		"/>
	<path opacity="0.1" fill="#FFFFFF" d="M121.929,104.498c0,24.375-10.872,44.264-46.542,44.133
		c-36.741-0.137-46.543-19.758-46.543-44.133c0-24.375,20.838-44.134,46.543-44.134C101.091,60.364,121.929,80.123,121.929,104.498z
		"/>
	<path opacity="0.1" fill="#FFFFFF" d="M117.186,101.665c0,22.81-9.875,41.423-42.273,41.3c-33.373-0.129-42.275-18.49-42.275-41.3
		c0-22.811,18.927-41.301,42.275-41.301C98.259,60.364,117.186,78.854,117.186,101.665z"/>
	<circle fill="#010101" cx="66.496" cy="95.889" r="2.692"/>
	<circle fill="#010101" cx="84.489" cy="95.889" r="2.692"/>
	<g>
		<g>
			<path fill="#010101" d="M70.213,103.446c-2.291,1.602-4.127,4.399-1.886,6.87c2.411,2.661,6.341,0.143,8.096-1.871
				c-0.59-0.076-1.179-0.152-1.768-0.229c1.67,2.74,4.819,4.231,7.688,2.203c3.002-2.123,2.088-6.088-1.063-7.37
				c-1.345-0.547-1.923,1.63-0.598,2.17c1.967,0.801,1.393,3.043-0.3,3.747c-1.644,0.683-2.993-0.586-3.784-1.885
				c-0.357-0.586-1.279-0.788-1.768-0.229c-1.055,1.211-2.777,2.897-4.558,2.113c-1.924-0.849,0.18-2.952,1.074-3.577
				C72.527,104.564,71.405,102.613,70.213,103.446L70.213,103.446z"/>
		</g>
	</g>
	<g>
		<g>
			<path fill="#010101" d="M60.216,90.281c2.665,0.476,5.496,0.953,7.884,2.294c1.266,0.711,2.4-1.232,1.135-1.943
				c-2.57-1.443-5.549-2.008-8.421-2.521C59.396,87.858,58.789,90.026,60.216,90.281L60.216,90.281z"/>
		</g>
	</g>
	<g>
		<g>
			<path fill="#010101" d="M82.929,92.305c2.361-1.617,5.227-2.617,8.042-3.071c1.43-0.23,0.821-2.398-0.598-2.17
				c-2.98,0.48-6.08,1.587-8.579,3.298C80.604,91.176,81.729,93.127,82.929,92.305L82.929,92.305z"/>
		</g>
	</g>
	<ellipse opacity="0.3" fill="#F27B7D" cx="56.561" cy="102.99" rx="6.099" ry="2.55"/>
	<ellipse opacity="0.3" fill="#F27B7D" cx="95.213" cy="102.726" rx="6.098" ry="2.551"/>
</g>
</svg>
