<?xml version="1.0" encoding="utf-8"?>
<!-- Generator: Adobe Illustrator 16.0.0, SVG Export Plug-In . SVG Version: 6.00 Build 0)  -->
<!DOCTYPE svg PUBLIC "-//W3C//DTD SVG 1.1//EN" "http://www.w3.org/Graphics/SVG/1.1/DTD/svg11.dtd">
<svg version="1.1" id="Layer_1" xmlns="http://www.w3.org/2000/svg" xmlns:xlink="http://www.w3.org/1999/xlink" x="0px" y="0px"
	 width="150px" height="225px" viewBox="0 0 150 225" enable-background="new 0 0 150 225" xml:space="preserve">
<path fill="#FFFFFF" stroke="#000000" stroke-miterlimit="10" d="M148.189,210.018c0,6.478-5.25,11.728-11.728,11.728H13.35
	c-6.476,0-11.725-5.25-11.725-11.728V13.619c0-6.476,5.25-11.725,11.725-11.725h123.115c6.477,0,11.727,5.25,11.727,11.725v196.398
	H148.189L148.189,210.018z"/>
<g>
	<g>
		<radialGradient id="SVGID_1_" cx="76.5117" cy="111.6089" r="56.9676" fx="77.5245" fy="95.6579" gradientUnits="userSpaceOnUse">
			<stop  offset="0" style="stop-color:#F7EAC7"/>
			<stop  offset="0.5" style="stop-color:#F2DB9B"/>
			<stop  offset="1" style="stop-color:#EAC54C"/>
		</radialGradient>
		<path fill="url(#SVGID_1_)" d="M126.914,110.765c-4.553,2.113-3.484,18.479-2.518,21.741c1.229,4.146-4.144,5.506-11.908,5.211
			c4.512-7.656,7.104-16.578,7.104-26.108c0-7.433-1.577-14.496-4.411-20.877c2.546-5.631,8.396-19.016,6.402-22.812
			c-3.986-3.085-23.07-1.312-27.616-0.84c-7.601-4.424-16.435-6.96-25.863-6.96c-11.733,0-22.55,3.929-31.209,10.538
			c-6.711-1.349-18.896-3.458-21.881-0.934c-1.881,3.998,2.397,18.499,4.46,24.944c-1.848,5.306-2.855,11.004-2.855,16.94
			c0,15.879,7.189,30.077,18.486,39.52c-1.717,1.15-2.849,3.107-2.849,5.328c0,3.539,2.869,6.408,6.407,6.408
			c3.144,0,5.754-2.266,6.299-5.252c6.958,3.506,14.818,5.484,23.142,5.484c8.87,0,17.213-2.246,24.499-6.197
			c0.057,1.691,0.774,3.357,2.138,4.572c2.644,2.354,6.693,2.117,9.047-0.525c2.353-2.645,2.117-6.693-0.526-9.047
			c-0.535-0.477-1.131-0.844-1.757-1.109c2.554-2.178,4.893-4.602,6.979-7.234c9.18,4.768,20.404,3.398,25.066-6.018
			C145.221,113.969,133.321,107.79,126.914,110.765z"/>
		<g>
			<path d="M123.886,105.584c-5.903,3.603-6.296,11.619-6.338,17.816c-0.021,3.051,0.307,6.074,0.733,9.09
				c0.498,3.521,1.337-1.307,0.945-1.182c-2.111,0.678-4.562,0.459-6.738,0.408c1.727,3.01,3.454,6.018,5.181,9.027
				c9.416-16.584,10.091-35.585,2.692-53.041c0,2.019,0,4.038,0,6.057c3.582-7.956,8.982-17.868,7.231-26.859
				c-1.741-8.942-18.715-6.858-24.952-6.521c-2.017,0.109-4.029,0.271-6.041,0.447c-0.704,0.061-1.408,0.13-2.112,0.2
				c2.601-0.257-1.065-1.017-1.894-1.413c-6.629-3.176-13.691-4.763-20.983-5.377c-13.333-1.121-27.08,3.352-37.744,11.24
				c1.541-0.202,3.082-0.403,4.623-0.605c-7.367-1.459-21.475-5.634-27.718,0.61c-2.971,2.97-2.309,8.148-1.785,11.883
				c0.71,5.063,2.031,10.004,3.469,14.902c0.213,0.716,0.43,1.431,0.65,2.145c0.602,1.965,0.498-1.25-0.424,1.891
				c-0.96,3.268-1.395,6.661-1.796,10.032c-0.758,6.368-0.003,12.937,1.422,19.155c2.656,11.59,9.607,22.184,18.555,29.881
				c0-2.828,0-5.656,0-8.484c-6.099,4.992-6.266,16.018,1.19,20.064c7.613,4.133,16.28,0.617,18.695-7.744
				c-2.938,1.195-5.876,2.391-8.814,3.586c17.281,8.361,36.65,8.178,53.697-0.711c-3.01-1.727-6.019-3.455-9.028-5.182
				c1.26,9.525,10.44,15.418,19.257,10.105c8.214-4.951,6.626-17.254-1.327-21.395c0.404,3.141,0.81,6.281,1.214,9.422
				c2.537-2.234,4.837-4.619,6.979-7.234c-2.423,0.313-4.847,0.625-7.271,0.938c8.104,3.926,16.774,4.766,24.957,0.59
				c8.127-4.148,12.049-15.168,13.553-23.555c1.133-6.318,0.388-13.178-4.343-17.898c-3.578-3.57-9.626-4.856-14.303-2.895
				c-3.014,1.265-5.143,3.919-4.191,7.38c0.784,2.85,4.359,5.459,7.381,4.192c1.878-0.787,1.779-0.68,2.877-0.012
				c-0.277-0.168,0.464,0.592,0.718,1.334c0.561,1.645,0.382,3.416,0.234,5.121c-0.413,4.766-2.979,12.377-6.921,15.313
				c-4.045,3.01-9.669,2.121-13.905,0.068c-2.262-1.096-5.492-1.232-7.271,0.939c-2.144,2.615-4.443,4.998-6.979,7.234
				c-2.829,2.494-2.088,7.705,1.214,9.424c2.265,1.18,0.109,0.795,0.127,0.928c-0.596-4.51-4.631-7.473-9.028-5.18
				c-13.018,6.787-28.34,7.119-41.584,0.711c-3.484-1.686-7.677-0.352-8.814,3.586c-0.346,1.197-1.568,0.779,0.171-0.646
				c2.402-1.965,2.307-6.5,0-8.484c-11.538-9.928-17.383-23.607-16.609-38.809c0.206-4.042,1.261-7.991,2.522-11.814
				c0.932-2.825-1.143-6.837-1.918-9.549c-1.197-4.183-3.985-11.434-2.542-15.396c-0.92,1.195-1.839,2.391-2.758,3.586
				c1.725-1.141,7.195-0.154,9.724,0.203c4.566,0.646,9.358,2.801,13.409-0.195c8.854-6.55,19.54-9.225,30.436-8.676
				c5.659,0.286,11.338,2.02,16.421,4.454c4.009,1.92,6.082,2.337,10.361,1.983c3.792-0.313,7.593-0.496,11.397-0.529
				c2.658-0.023,7.077-0.142,8.765,0.955c-0.919-1.195-1.838-2.391-2.758-3.586c0.938,2.407-1.417,7.362-2.382,10.006
				c-1.629,4.461-5.416,9.518-3.415,14.239c5.659,13.354,4.41,28.418-2.692,40.928c-2.28,4.016,0.622,8.924,5.181,9.029
				c8.362,0.193,19.822-1.807,17.694-12.807c-0.468-2.414-0.603-4.887-0.635-7.51c-0.02-1.6-0.009-3.27,0.207-4.857
				c0.129-0.945,0.365-1.863,0.621-2.779c0.338-1.213,0.871-0.613-0.434,0.182C136.535,111.923,130.511,101.541,123.886,105.584z"/>
		</g>
	</g>
	<g>
		<linearGradient id="SVGID_2_" gradientUnits="userSpaceOnUse" x1="32.4854" y1="156.4873" x2="45.2998" y2="156.4873">
			<stop  offset="0" style="stop-color:#F7EAC7"/>
			<stop  offset="0.5" style="stop-color:#F2DB9B"/>
			<stop  offset="1" style="stop-color:#EAC54C"/>
		</linearGradient>
		<circle fill="url(#SVGID_2_)" stroke="#000000" cx="38.893" cy="156.488" r="6.407"/>
		<linearGradient id="SVGID_3_" gradientUnits="userSpaceOnUse" x1="34.0049" y1="159.4619" x2="35.9883" y2="159.4619">
			<stop  offset="0" style="stop-color:#F7EAC7"/>
			<stop  offset="0.5" style="stop-color:#F2DB9B"/>
			<stop  offset="1" style="stop-color:#EAC54C"/>
		</linearGradient>
		<path fill="url(#SVGID_3_)" stroke="#000000" d="M34.005,160.529c0,0,0.297-1.869,1.983-2.135"/>
		<linearGradient id="SVGID_4_" gradientUnits="userSpaceOnUse" x1="39.8027" y1="161.0635" x2="40.8711" y2="161.0635">
			<stop  offset="0" style="stop-color:#F7EAC7"/>
			<stop  offset="0.5" style="stop-color:#F2DB9B"/>
			<stop  offset="1" style="stop-color:#EAC54C"/>
		</linearGradient>
		<path fill="url(#SVGID_4_)" stroke="#000000" d="M40.871,162.361c0,0-0.001-2.441-1.068-2.596"/>
		<linearGradient id="SVGID_5_" gradientUnits="userSpaceOnUse" x1="36.8838" y1="161.3555" x2="37.9531" y2="161.3555">
			<stop  offset="0" style="stop-color:#F7EAC7"/>
			<stop  offset="0.5" style="stop-color:#F2DB9B"/>
			<stop  offset="1" style="stop-color:#EAC54C"/>
		</linearGradient>
		<path fill="url(#SVGID_5_)" stroke="#000000" d="M36.884,162.719c0,0,0.35-1.215,1.069-2.727"/>
	</g>
	<g>
		<linearGradient id="SVGID_6_" gradientUnits="userSpaceOnUse" x1="92.8223" y1="156.7168" x2="105.6367" y2="156.7168">
			<stop  offset="0" style="stop-color:#F7EAC7"/>
			<stop  offset="0.5" style="stop-color:#F2DB9B"/>
			<stop  offset="1" style="stop-color:#EAC54C"/>
		</linearGradient>
		<circle fill="url(#SVGID_6_)" stroke="#000000" cx="99.23" cy="156.716" r="6.408"/>
		<linearGradient id="SVGID_7_" gradientUnits="userSpaceOnUse" x1="98.374" y1="161.6045" x2="98.999" y2="161.6045">
			<stop  offset="0" style="stop-color:#F7EAC7"/>
			<stop  offset="0.5" style="stop-color:#F2DB9B"/>
			<stop  offset="1" style="stop-color:#EAC54C"/>
		</linearGradient>
		<path fill="url(#SVGID_7_)" stroke="#000000" d="M98.999,163.055c0,0-1.198-1.465-0.276-2.9"/>
		<linearGradient id="SVGID_8_" gradientUnits="userSpaceOnUse" x1="102.2842" y1="158.5938" x2="104.9316" y2="158.5938">
			<stop  offset="0" style="stop-color:#F7EAC7"/>
			<stop  offset="0.5" style="stop-color:#F2DB9B"/>
			<stop  offset="1" style="stop-color:#EAC54C"/>
		</linearGradient>
		<path fill="url(#SVGID_8_)" stroke="#000000" d="M104.932,159.143c0,0-1.824-1.621-2.647-0.926"/>
		<linearGradient id="SVGID_9_" gradientUnits="userSpaceOnUse" x1="101.2227" y1="161.0547" x2="102.5479" y2="161.0547">
			<stop  offset="0" style="stop-color:#F7EAC7"/>
			<stop  offset="0.5" style="stop-color:#F2DB9B"/>
			<stop  offset="1" style="stop-color:#EAC54C"/>
		</linearGradient>
		<path fill="url(#SVGID_9_)" stroke="#000000" d="M102.548,162.361c0,0-0.675-1.07-1.325-2.613"/>
	</g>
	<linearGradient id="SVGID_10_" gradientUnits="userSpaceOnUse" x1="91.501" y1="154.1484" x2="104.3164" y2="154.1484">
		<stop  offset="0" style="stop-color:#F7EAC7"/>
		<stop  offset="0.5" style="stop-color:#F2DB9B"/>
		<stop  offset="1" style="stop-color:#EAC54C"/>
	</linearGradient>
	<circle fill="url(#SVGID_10_)" cx="97.909" cy="154.147" r="6.408"/>
	<linearGradient id="SVGID_11_" gradientUnits="userSpaceOnUse" x1="33.144" y1="154.1484" x2="45.959" y2="154.1484">
		<stop  offset="0" style="stop-color:#F7EAC7"/>
		<stop  offset="0.5" style="stop-color:#F2DB9B"/>
		<stop  offset="1" style="stop-color:#EAC54C"/>
	</linearGradient>
	<circle fill="url(#SVGID_11_)" cx="39.551" cy="154.147" r="6.408"/>
	<radialGradient id="SVGID_12_" cx="119.3887" cy="128.1855" r="18.7094" gradientUnits="userSpaceOnUse">
		<stop  offset="0" style="stop-color:#F7EAC7"/>
		<stop  offset="0.5" style="stop-color:#F2DB9B"/>
		<stop  offset="1" style="stop-color:#EAC54C"/>
	</radialGradient>
	<path fill="url(#SVGID_12_)" stroke="#000000" d="M100.074,136.25c8.99,12.076,27.383,14.088,33.704,1.32
		c11.671-23.57-0.229-29.75-6.636-26.776c-4.553,2.115-3.483,18.479-2.518,21.741C126.456,138.715,113.641,138.715,100.074,136.25z"
		/>
	
		<radialGradient id="SVGID_13_" cx="120.2402" cy="105.4609" r="16.8812" gradientTransform="matrix(0.9889 -0.1127 0.081 0.955 -8.2243 41.1843)" gradientUnits="userSpaceOnUse">
		<stop  offset="0" style="stop-color:#F7EAC7"/>
		<stop  offset="0.5" style="stop-color:#F2DB9B"/>
		<stop  offset="1" style="stop-color:#EAC54C"/>
	</radialGradient>
	<path opacity="0.3" fill="url(#SVGID_13_)" d="M102.577,137.264c8.904,9.49,25.464,9.354,30.171-2.293
		c8.691-21.496-2.379-25.61-7.879-22.395c-3.907,2.286-1.757,16.278-0.656,18.989C126.298,136.703,114.863,138.006,102.577,137.264z
		"/>
	<linearGradient id="SVGID_14_" gradientUnits="userSpaceOnUse" x1="9.7188" y1="67.0576" x2="22.7627" y2="77.8132">
		<stop  offset="0" style="stop-color:#F7EAC7"/>
		<stop  offset="0.5" style="stop-color:#F2DB9B"/>
		<stop  offset="1" style="stop-color:#EAC54C"/>
	</linearGradient>
	<path fill="url(#SVGID_14_)" stroke="#000000" d="M20.734,97.826c0,0-7.933-22.883-5.492-28.07
		c3.987-3.373,24.407,1.526,26.237,1.831C43.311,71.892,22.26,94.165,20.734,97.826z"/>
	<g>
		<path fill="#4D4D4D" d="M22.132,97.041c0,0-6.76-19.499-4.681-23.918c3.397-2.875,20.797,1.3,22.357,1.56
			C41.368,74.942,23.431,93.921,22.132,97.041z"/>
		<radialGradient id="SVGID_15_" cx="18.0674" cy="72.0508" r="9.5538" gradientUnits="userSpaceOnUse">
			<stop  offset="0.0056" style="stop-color:#FCE6F0"/>
			<stop  offset="0.4494" style="stop-color:#F9CADE"/>
			<stop  offset="1" style="stop-color:#F7B3D0"/>
		</radialGradient>
		<path fill="url(#SVGID_15_)" d="M23.667,97.674c0,0-6.759-19.5-4.68-23.919c3.397-2.875,20.797,1.3,22.357,1.56
			C42.904,75.574,24.967,94.554,23.667,97.674z"/>
	</g>
	<linearGradient id="SVGID_16_" gradientUnits="userSpaceOnUse" x1="123.6748" y1="66.4287" x2="111.7751" y2="74.667">
		<stop  offset="0" style="stop-color:#F7EAC7"/>
		<stop  offset="0.5" style="stop-color:#F2DB9B"/>
		<stop  offset="1" style="stop-color:#EAC54C"/>
	</linearGradient>
	<path fill="url(#SVGID_16_)" stroke="#000000" d="M93.219,67.217c0,0,24.061-2.774,28.594,0.734
		c2.428,4.624-6.79,23.495-7.485,25.216S96.462,69.501,93.219,67.217z"/>
	<path fill="#4D4D4D" d="M94.105,70.171c0,0,20.542-1.982,24.349,1.078c1.994,3.979-6.157,19.91-6.777,21.365
		C111.058,94.069,96.831,72.168,94.105,70.171z"/>
	
		<radialGradient id="SVGID_17_" cx="402.4941" cy="152.7422" r="9.5545" gradientTransform="matrix(-0.2353 0.9719 -0.9719 -0.2353 361.8205 -283.8306)" gradientUnits="userSpaceOnUse">
		<stop  offset="0.0056" style="stop-color:#FCE6F0"/>
		<stop  offset="0.4494" style="stop-color:#F9CADE"/>
		<stop  offset="1" style="stop-color:#F7B3D0"/>
	</radialGradient>
	<path fill="url(#SVGID_17_)" d="M92.442,70.828c0,0,20.543-1.981,24.349,1.079c1.995,3.979-6.156,19.909-6.776,21.364
		S95.169,72.826,92.442,70.828z"/>
	<path opacity="0.3" fill="#FFFFFF" d="M91.683,72.437c0,0,20.543-1.982,24.349,1.078c1.995,3.979-6.156,19.909-6.776,21.364
		S94.409,74.434,91.683,72.437z"/>
	<path opacity="0.3" fill="#FFFFFF" d="M25.998,97.923c0,0-7.141-18.79-5.244-23.153c3.226-2.897,20.286,0.666,21.813,0.874
		S27.174,94.847,25.998,97.923z"/>
	<g>
		<radialGradient id="SVGID_18_" cx="68.334" cy="111.6401" r="51.488" fx="69.2493" fy="97.2235" gradientUnits="userSpaceOnUse">
			<stop  offset="0" style="stop-color:#F7EAC7"/>
			<stop  offset="0.5" style="stop-color:#F2DB9B"/>
			<stop  offset="1" style="stop-color:#EAC54C"/>
		</radialGradient>
		<circle fill="url(#SVGID_18_)" stroke="#000000" cx="68.334" cy="111.638" r="51.487"/>
		
			<radialGradient id="SVGID_19_" cx="67.561" cy="126.748" r="51.4885" fx="68.4764" fy="112.3312" gradientTransform="matrix(0.9711 0 0 0.8911 2.6106 -0.9614)" gradientUnits="userSpaceOnUse">
			<stop  offset="0" style="stop-color:#F7EAC7"/>
			<stop  offset="0.5" style="stop-color:#F2DB9B"/>
			<stop  offset="1" style="stop-color:#EAC54C"/>
		</radialGradient>
		<ellipse opacity="0.2" fill="url(#SVGID_19_)" cx="68.219" cy="111.982" rx="50" ry="45.883"/>
		<ellipse opacity="0.1" fill="#FFFFFF" cx="68.334" cy="104.562" rx="49.428" ry="43.464"/>
	</g>
	<circle cx="58.878" cy="100.04" r="2.898"/>
	<circle cx="78.252" cy="100.04" r="2.898"/>
	<g>
		<g>
			<g>
				<path d="M48.261,102.641c-1.053-1.022-2.016-2.146-3.279-2.922c-1.239-0.762-2.369,1.185-1.135,1.943
					c1.089,0.669,1.914,1.687,2.822,2.57C47.71,105.243,49.302,103.654,48.261,102.641L48.261,102.641z"/>
			</g>
		</g>
		<g>
			<g>
				<path d="M46.556,106.928c-0.894,0.353-2.119,0.323-3.057,0.266c-1.45-0.09-1.441,2.162,0,2.25
					c0.688,0.043,1.379-0.006,2.064-0.078c0.509-0.053,1.106-0.076,1.59-0.268c0.57-0.225,0.962-0.744,0.786-1.383
					C47.79,107.17,47.127,106.702,46.556,106.928L46.556,106.928z"/>
			</g>
		</g>
		<g>
			<g>
				<path d="M47.408,112.632c-0.674,0.875-1.394,1.754-2.342,2.342c-1.23,0.764-0.102,2.711,1.135,1.943
					c1.298-0.805,2.23-1.955,3.15-3.15c0.375-0.486,0.074-1.258-0.404-1.54C48.368,111.888,47.782,112.148,47.408,112.632
					L47.408,112.632z"/>
			</g>
		</g>
	</g>
	<g>
		<g>
			<g>
				<path d="M90.606,112.468c1.053,1.024,2.017,2.147,3.28,2.922c1.239,0.762,2.369-1.186,1.135-1.943
					c-1.089-0.668-1.915-1.686-2.823-2.571C91.157,109.867,89.565,111.455,90.606,112.468L90.606,112.468z"/>
			</g>
		</g>
		<g>
			<g>
				<path d="M92.313,108.181c0.895-0.351,2.118-0.323,3.057-0.265c1.45,0.089,1.441-2.161,0-2.25
					c-0.688-0.043-1.379,0.007-2.064,0.079c-0.509,0.053-1.106,0.076-1.59,0.266c-0.57,0.224-0.962,0.746-0.786,1.384
					C91.078,107.939,91.741,108.404,92.313,108.181L92.313,108.181z"/>
			</g>
		</g>
		<g>
			<g>
				<path d="M91.459,102.477c0.674-0.875,1.395-1.753,2.342-2.342c1.229-0.765,0.101-2.711-1.135-1.943
					c-1.297,0.806-2.23,1.956-3.15,3.15c-0.375,0.486-0.074,1.259,0.404,1.539C90.499,103.221,91.085,102.962,91.459,102.477
					L91.459,102.477z"/>
			</g>
		</g>
	</g>
	<path fill="#8B6339" d="M57.194,61.367c-0.915,0.458-1.984,10.524,2.287,9.305c4.271-1.221,4.426-10.373,4.426-10.373
		S58.109,60.909,57.194,61.367z"/>
	<path fill="#8B6339" d="M80.672,61.672c0.954,0.458,2.069,10.524-2.385,9.305c-4.456-1.221-4.616-10.373-4.616-10.373
		S79.717,61.214,80.672,61.672z"/>
	<path fill="#8B6339" d="M65.585,60.604c0,0-0.944,9.966,2.594,10.375c3.967,0.457,4.882-10.222,3.967-10.526
		C71.229,60.146,67.11,59.994,65.585,60.604z"/>
	<path fill="#8B6339" d="M124.854,115.373c0,0,5.491-1.83,6.178,0.457c0.687,2.289-6.178,3.203-6.864,2.975
		S124.168,116.287,124.854,115.373z"/>
	<path fill="#8B6339" d="M123.71,120.406c0,0,6.636-1.373,7.322,0.916s-6.178,3.205-6.864,2.975
		C123.481,124.068,123.023,121.322,123.71,120.406z"/>
	<path fill="#8B6339" d="M123.938,125.441c0,0,6.637-1.373,7.323,0.916s-6.179,3.203-6.865,2.975S123.252,126.357,123.938,125.441z"
		/>
	<g>
		<g>
			<path d="M62.956,107.702c-0.744,1.897,0.57,3.311,2.522,3.069c2.449-0.305,3.817-2.547,3.833-4.853
				c0.007-0.972-1.456-0.962-1.5,0c-0.118,2.609,1.529,4.535,4.111,4.839c2.341,0.279,3.499-1.729,2.474-3.693
				c-0.447-0.857-1.742-0.099-1.295,0.758c0.671,1.285-0.438,1.589-1.538,1.375c-1.623-0.316-2.321-1.75-2.252-3.279
				c-0.5,0-1,0-1.5,0c-0.01,1.43-0.589,2.685-1.975,3.236c-1.019,0.404-1.893,0.115-1.434-1.053
				C64.757,107.199,63.306,106.813,62.956,107.702L62.956,107.702z"/>
		</g>
	</g>
	<path d="M66.678,105.753c0.195-0.684,3.32-0.781,3.808-0.194c0.488,0.585-0.878,1.952-1.952,2.05S66.482,106.438,66.678,105.753z"
		/>
</g>
</svg>
