<?xml version="1.0" encoding="utf-8"?>
<!-- Generator: Adobe Illustrator 16.0.0, SVG Export Plug-In . SVG Version: 6.00 Build 0)  -->
<!DOCTYPE svg PUBLIC "-//W3C//DTD SVG 1.1//EN" "http://www.w3.org/Graphics/SVG/1.1/DTD/svg11.dtd">
<svg version="1.1" id="Layer_1" xmlns="http://www.w3.org/2000/svg" xmlns:xlink="http://www.w3.org/1999/xlink" x="0px" y="0px"
	 width="150px" height="225px" viewBox="0 0 150 225" enable-background="new 0 0 150 225" xml:space="preserve">
<path fill="#FFFFFF" stroke="#000000" stroke-miterlimit="10" d="M148.189,210.018c0,6.476-5.25,11.726-11.726,11.726H13.35
	c-6.476,0-11.725-5.25-11.725-11.726V13.619c0-6.476,5.25-11.725,11.725-11.725h123.115c6.477,0,11.727,5.25,11.727,11.725v196.398
	H148.189z"/>
<g>
	<g>
		<path fill="#FFFFFF" d="M135.891,118.571c0.682,0.508,1.353,0.922,1.569,0.38c0.47-1.172-7.259-11.944-10.068-13.115
			c0,0-0.938,8.197-2.577,10.772c-0.913,1.436-0.227,2.288,0.762,2.439c-2.476,9.395-7.233,16.235-12.822,20.38
			c2.022-6.558,2.89-13.835,2.89-21.491c0-10.852-3.326-20.926-9.013-29.261c0.576-2.313,5.959-17.505,8.275-28.244
			c0.152,0.204,0.333,0.283,0.563,0.149c1.087-0.639,1.583-13.888,0.082-16.536c0,0-5.765,5.902-8.639,6.933
			c-1.164,0.417-1.472,1.11-1.289,1.734c-10.456,4.993-25.137,14.8-26.362,15.622c-4.926-1.547-10.168-2.384-15.605-2.384
			c-5.945,0-11.654,1-16.974,2.837c-4.496-2.686-15.412-9.47-23.774-13.438c-0.176-0.36-0.566-0.689-1.249-0.922
			c-2.892-0.981-8.757-6.783-8.757-6.783c-1.457,2.673-0.73,15.913,0.368,16.531c0.119,0.067,0.224,0.076,0.318,0.042
			c1.957,8.198,5.509,18.466,7.473,23.91c-5.918,8.44-9.393,18.718-9.393,29.811c0,17.563,4.099,33.032,16.676,42.434
			c-0.934,1.133-1.495,2.585-1.495,4.167c0,3.622,2.936,6.557,6.558,6.557c3.002,0,5.527-2.021,6.305-4.774
			c6.521,2.292,14.42,3.566,23.943,3.604c10.011,0.038,18.273-1.413,25.035-4.063c0.238,1.422,0.941,2.774,2.103,3.808
			c2.704,2.408,6.85,2.167,9.257-0.538c2.408-2.705,2.168-6.85-0.538-9.258c-0.038-0.033-0.08-0.062-0.119-0.095
			c2.71-2.153,5.023-4.608,6.988-7.312c8.62,4.392,18.356,4.447,22.883,1.375C136.454,148.964,141.208,132.83,135.891,118.571z"/>
		<g>
			<path d="M132.862,123.752c2.015,1.227,3.878,1.758,6.192,0.985c2.639-0.881,4.284-2.99,4.405-5.786
				c0.151-3.5-2.685-6.935-4.624-9.586c-2.288-3.128-4.917-6.831-8.416-8.71c-4.34-2.331-8.495,0.693-9.028,5.181
				c-0.61,5.136-6.356,14.986,1.156,18.393c-0.919-2.259-1.838-4.517-2.758-6.775c-2.007,7.113-5.391,13.157-11.278,17.732
				c3.343,1.945,6.686,3.892,10.028,5.837c5.411-18.582,4.079-39-6.729-55.375c0.202,1.541,0.403,3.082,0.605,4.624
				c2.569-9.481,6.129-18.629,8.275-28.244c-2.461,1.396-4.921,2.793-7.381,4.19c0.188,0.05,0.375,0.099,0.563,0.149
				c1.959,0.518,4.455,0.054,5.837-1.543c4.555-5.26,3.688-17.864,1.021-23.807c-1.604-3.573-6.924-3.751-9.423-1.214
				c-1.599,1.622-3.261,3.262-5.08,4.635c-3.233,2.441-6.648,3.432-6.605,8.274c0.99-1.727,1.981-3.454,2.972-5.181
				c-9.174,4.468-17.89,9.95-26.362,15.622c1.541-0.202,3.082-0.403,4.623-0.605C69.099,59.068,56.749,59.185,45.088,63
				c1.542,0.202,3.083,0.403,4.624,0.605c-6.563-3.938-13.098-7.911-19.869-11.486c-4.709-2.486-8.853-4.95-12.696-8.719
				c-2.489-2.44-7.872-2.445-9.423,1.214c-1.902,4.488-1.78,9.445-1.475,14.243c0.341,5.369,1.113,10.526,7.341,11.359
				c-1.929-1.468-3.857-2.937-5.786-4.405c1.998,8.113,4.651,16.05,7.473,23.91c0.202-1.542,0.403-3.083,0.605-4.624
				c-15.373,22.67-14.726,61.666,8.221,79.515c-0.313-2.423-0.625-4.847-0.938-7.271c-4.228,6.49-2.134,14.729,4.663,18.418
				c7.301,3.961,14.991-0.902,17.671-7.846c-2.46,1.397-4.92,2.794-7.381,4.191c16.221,5.454,36.091,5.578,52.167-0.458
				c-2.46-1.397-4.92-2.794-7.381-4.191c2.414,8.533,11.514,12.386,19.196,7.754c6.535-3.939,7.656-14.807,1.534-19.674
				c0,2.828,0,5.656,0,8.484c3.048-2.539,5.532-5.376,7.927-8.525c-2.736,0.718-5.473,1.435-8.209,2.152
				c10.33,4.926,24.832,7.386,33.164-2.43c8.651-10.192,9.355-26.093,5.159-38.241c-2.511-7.268-14.105-4.145-11.572,3.189
				c2.792,8.081,2.955,17.084-1.053,24.813c-3.864,7.45-13.296,5.333-19.642,2.308c-3.237-1.544-6.098-0.625-8.209,2.152
				c-1.748,2.299-3.84,4.255-6.05,6.098c-2.316,1.929-2.405,6.573,0,8.484c1.081,0.86-0.126,2.183-0.674,0.246
				c-0.829-2.931-4.301-5.348-7.381-4.191c-14.28,5.362-31.372,5.307-45.788,0.458c-3.327-1.118-6.257,1.28-7.381,4.191
				c-0.255,0.661-1.513,0.38-0.402-1.326c1.33-2.041,1.086-5.696-0.938-7.271c-13.166-10.241-15.968-27.575-14.663-43.381
				c0.366-4.429,1.723-9.011,3.475-13.079c1.553-3.606,6.929-9.013,5.448-13.137c-2.822-7.859-5.475-15.796-7.473-23.91
				c-0.699-2.837-3.148-4.052-5.786-4.405c-0.106-0.014-0.212-0.028-0.318-0.042c1.414,0.586,2.829,1.171,4.243,1.757
				c1.619,1.848,1.086,2.189,0.918,0.904c-0.18-1.377-0.24-2.771-0.303-4.157c-0.067-1.467-0.044-2.936,0.003-4.403
				c0-0.006,0.494-2.885-0.049-1.604c-3.141,0.405-6.282,0.81-9.423,1.214c5.367,5.263,11.296,8.516,17.83,12.039
				c4.67,2.519,9.225,5.254,13.768,7.994c1.503,0.907,3.117,2.182,4.829,2.653c3.043,0.837,6.783-1.137,9.751-1.792
				c5.793-1.279,12.006-1.063,17.801,0.034c4.679,0.885,7.479,2.12,11.604-0.593c7.872-5.178,15.931-10.199,24.409-14.329
				c1.846-0.899,2.989-3.197,2.972-5.181c0.025,2.812-3.185,4.424-0.183,2.664c1.364-0.8,2.598-1.902,3.821-2.894
				c1.595-1.292,3.091-2.732,4.531-4.194c-3.141-0.405-6.282-0.81-9.423-1.214c-0.542-1.207,0.004,1.218,0.011,1.296
				c0.115,1.383,0.11,2.777,0.107,4.164c-0.003,1.357-0.083,2.712-0.182,4.065c-0.114,1.571-0.867,1.803,0.92-0.26
				c1.945-0.514,3.892-1.029,5.837-1.543c-0.188-0.05-0.375-0.099-0.563-0.149c-3.041-0.804-6.663,0.975-7.381,4.19
				c-1.448,6.49-3.382,12.853-5.394,19.187c-1.117,3.519-4.638,10.104-2.276,13.681c9.125,13.825,10.09,30.431,5.518,46.129
				c-1.842,6.327,5.635,9.252,10.028,5.837c7.395-5.745,11.858-14.142,14.366-23.027c0.672-2.383-0.354-5.686-2.758-6.775
				c0.321,0.316,0.642,0.633,0.963,0.95c0.201,1.541,0.403,3.082,0.604,4.623c1.572-4.543,2.649-8.803,3.22-13.604
				c-3.01,1.727-6.019,3.454-9.028,5.181c1.297,0.696,2.972,2.903,4.111,4.405c0.841,1.107,1.615,2.262,2.368,3.43
				c0.912,1.414,0.542,1.835,0.617,0.1c1.469-1.929,2.937-3.857,4.405-5.786c-0.204,0.068-0.407,0.137-0.61,0.204
				c1.541,0.202,3.082,0.403,4.623,0.604c-0.319-0.194-0.64-0.389-0.959-0.583C132.29,109.356,126.264,119.736,132.862,123.752z"/>
		</g>
	</g>
	<radialGradient id="SVGID_1_" cx="97.5488" cy="69.4775" r="19.0036" gradientUnits="userSpaceOnUse">
		<stop  offset="0" style="stop-color:#FFCDB0"/>
		<stop  offset="0.5" style="stop-color:#FFC369"/>
		<stop  offset="1" style="stop-color:#FF9245"/>
	</radialGradient>
	<path fill="url(#SVGID_1_)" stroke="#000000" d="M79.154,68.447c0,0,30.757-20.731,36.13-18.377c3.561,3.987-8.455,37-8.717,38.881
		C106.305,90.833,82.942,69.907,79.154,68.447z"/>
	<path fill="#333333" d="M79.188,71.774c0,0,24.36-14.835,28.938-12.829c3.034,3.397-5.356,28.699-5.58,30.302
		C102.323,90.851,82.416,73.019,79.188,71.774z"/>
	<radialGradient id="SVGID_2_" cx="93.4561" cy="75.4595" r="15.0489" gradientUnits="userSpaceOnUse">
		<stop  offset="0.0056" style="stop-color:#FCE6F0"/>
		<stop  offset="0.4494" style="stop-color:#F9CADE"/>
		<stop  offset="1" style="stop-color:#F7B3D0"/>
	</radialGradient>
	<path fill="url(#SVGID_2_)" d="M78.657,73.18c0,0,24.359-14.835,28.938-12.829c3.034,3.397-5.356,28.698-5.58,30.302
		C101.792,92.255,81.885,74.424,78.657,73.18z"/>
	<radialGradient id="SVGID_3_" cx="92.5664" cy="77.3721" r="15.0489" gradientUnits="userSpaceOnUse">
		<stop  offset="0.0056" style="stop-color:#FCE6F0"/>
		<stop  offset="0.4494" style="stop-color:#F9CADE"/>
		<stop  offset="1" style="stop-color:#F7B3D0"/>
	</radialGradient>
	<path opacity="0.7" fill="url(#SVGID_3_)" d="M77.767,75.093c0,0,24.36-14.836,28.938-12.829
		c3.035,3.397-5.356,28.698-5.579,30.302C100.901,94.167,80.994,76.338,77.767,75.093z"/>
	<path fill="#FFFFFF" stroke="#000000" d="M115.535,44.096c0,0-5.765,5.902-8.639,6.934c-2.874,1.03-0.528,3.739,1.544,2.976
		c0,0-1.352,2.508,0.601,3.429c1.953,0.922,3.781,0.858,4.54,0.262c0.758-0.596,0.785,3.572,1.872,2.936
		C116.542,59.993,117.038,46.744,115.535,44.096z"/>
	<radialGradient id="SVGID_4_" cx="30.4673" cy="72.1816" r="19.0543" gradientUnits="userSpaceOnUse">
		<stop  offset="0" style="stop-color:#FFCDB0"/>
		<stop  offset="0.5" style="stop-color:#FFC369"/>
		<stop  offset="1" style="stop-color:#FF9245"/>
	</radialGradient>
	<path fill="url(#SVGID_4_)" stroke="#000000" d="M22.447,91.982c0,0-13.178-34.671-9.661-39.366
		c4.692-2.56,34.1,16.663,35.872,17.347C50.429,70.646,24.731,88.626,22.447,91.982z"/>
	<path fill="#333333" d="M25.67,92.583c0,0-8.896-27.098-5.899-31.099c3.998-2.181,26.724,11.753,28.234,12.335
		C49.514,74.403,27.618,89.724,25.67,92.583z"/>
	<radialGradient id="SVGID_5_" cx="34.8887" cy="77.8789" r="15.076" gradientUnits="userSpaceOnUse">
		<stop  offset="0.0056" style="stop-color:#FCE6F0"/>
		<stop  offset="0.4494" style="stop-color:#F9CADE"/>
		<stop  offset="1" style="stop-color:#F7B3D0"/>
	</radialGradient>
	<path fill="url(#SVGID_5_)" d="M26.942,93.544c0,0-8.896-27.098-5.899-31.099c3.999-2.181,26.724,11.753,28.234,12.336
		S28.89,90.686,26.942,93.544z"/>
	<radialGradient id="SVGID_6_" cx="37.231" cy="79.4399" r="15.0757" gradientUnits="userSpaceOnUse">
		<stop  offset="0.0056" style="stop-color:#FCE6F0"/>
		<stop  offset="0.4494" style="stop-color:#F9CADE"/>
		<stop  offset="1" style="stop-color:#F7B3D0"/>
	</radialGradient>
	<path opacity="0.7" fill="url(#SVGID_6_)" d="M29.284,95.105c0,0-8.896-27.098-5.899-31.099
		c3.998-2.18,26.723,11.754,28.233,12.336C53.128,76.925,31.232,92.246,29.284,95.105z"/>
	<path fill="#FFFFFF" stroke="#000000" d="M12.888,47.694c0,0,5.865,5.802,8.757,6.783c2.891,0.981,0.593,3.729-1.492,3.002
		c0,0,1.395,2.484-0.541,3.439c-1.936,0.956-3.765,0.923-4.535,0.34c-0.769-0.583-0.723,3.585-1.821,2.966
		C12.158,63.606,11.431,50.368,12.888,47.694z"/>
	<g>
		<radialGradient id="SVGID_7_" cx="33.3926" cy="164.5879" r="6.5571" gradientUnits="userSpaceOnUse">
			<stop  offset="0" style="stop-color:#FFCDB0"/>
			<stop  offset="0.5" style="stop-color:#FFC369"/>
			<stop  offset="1" style="stop-color:#FF9245"/>
		</radialGradient>
		<circle fill="url(#SVGID_7_)" stroke="#000000" cx="33.392" cy="164.589" r="6.557"/>
		<radialGradient id="SVGID_8_" cx="29.4063" cy="167.6328" r="1.0547" gradientUnits="userSpaceOnUse">
			<stop  offset="0" style="stop-color:#FFCDB0"/>
			<stop  offset="0.5" style="stop-color:#FFC369"/>
			<stop  offset="1" style="stop-color:#FF9245"/>
		</radialGradient>
		<path fill="url(#SVGID_8_)" stroke="#000000" d="M28.391,168.726c0,0,0.304-1.914,2.03-2.187"/>
		<radialGradient id="SVGID_9_" cx="34.8706" cy="169.2705" r="1.0149" gradientUnits="userSpaceOnUse">
			<stop  offset="0" style="stop-color:#FFCDB0"/>
			<stop  offset="0.5" style="stop-color:#FFC369"/>
			<stop  offset="1" style="stop-color:#FF9245"/>
		</radialGradient>
		<path fill="url(#SVGID_9_)" stroke="#000000" d="M35.417,170.598c0,0-0.001-2.498-1.093-2.654"/>
		<radialGradient id="SVGID_10_" cx="31.8843" cy="169.5693" r="1.06" gradientUnits="userSpaceOnUse">
			<stop  offset="0" style="stop-color:#FFCDB0"/>
			<stop  offset="0.5" style="stop-color:#FFC369"/>
			<stop  offset="1" style="stop-color:#FF9245"/>
		</radialGradient>
		<path fill="url(#SVGID_10_)" stroke="#000000" d="M31.337,170.965c0,0,0.358-1.243,1.095-2.791"/>
	</g>
	<radialGradient id="SVGID_11_" cx="34.7979" cy="162.2461" r="6.5574" gradientUnits="userSpaceOnUse">
		<stop  offset="0" style="stop-color:#FFCDB0"/>
		<stop  offset="0.5" style="stop-color:#FFC369"/>
		<stop  offset="1" style="stop-color:#FF9245"/>
	</radialGradient>
	<circle opacity="0.6" fill="url(#SVGID_11_)" cx="34.798" cy="162.246" r="6.557"/>
	<g>
		<radialGradient id="SVGID_12_" cx="95.1377" cy="164.8223" r="6.5571" gradientUnits="userSpaceOnUse">
			<stop  offset="0" style="stop-color:#FFCDB0"/>
			<stop  offset="0.5" style="stop-color:#FFC369"/>
			<stop  offset="1" style="stop-color:#FF9245"/>
		</radialGradient>
		<circle fill="url(#SVGID_12_)" stroke="#000000" cx="95.138" cy="164.822" r="6.557"/>
		<radialGradient id="SVGID_13_" cx="94.582" cy="169.8242" r="1.0744" gradientUnits="userSpaceOnUse">
			<stop  offset="0" style="stop-color:#FFCDB0"/>
			<stop  offset="0.5" style="stop-color:#FFC369"/>
			<stop  offset="1" style="stop-color:#FF9245"/>
		</radialGradient>
		<path fill="url(#SVGID_13_)" stroke="#000000" d="M94.902,171.31c0,0-1.226-1.5-0.283-2.97"/>
		<radialGradient id="SVGID_14_" cx="99.6182" cy="166.7441" r="1.0371" gradientUnits="userSpaceOnUse">
			<stop  offset="0" style="stop-color:#FFCDB0"/>
			<stop  offset="0.5" style="stop-color:#FFC369"/>
			<stop  offset="1" style="stop-color:#FF9245"/>
		</radialGradient>
		<path fill="url(#SVGID_14_)" stroke="#000000" d="M100.973,167.307c0,0-1.867-1.661-2.709-0.948"/>
		<radialGradient id="SVGID_15_" cx="97.8555" cy="169.2617" r="1.0596" gradientUnits="userSpaceOnUse">
			<stop  offset="0" style="stop-color:#FFCDB0"/>
			<stop  offset="0.5" style="stop-color:#FFC369"/>
			<stop  offset="1" style="stop-color:#FF9245"/>
		</radialGradient>
		<path fill="url(#SVGID_15_)" stroke="#000000" d="M98.534,170.598c0,0-0.69-1.094-1.356-2.672"/>
	</g>
	<radialGradient id="SVGID_16_" cx="94.0439" cy="162.2461" r="6.5571" gradientUnits="userSpaceOnUse">
		<stop  offset="0" style="stop-color:#FFCDB0"/>
		<stop  offset="0.5" style="stop-color:#FFC369"/>
		<stop  offset="1" style="stop-color:#FF9245"/>
	</radialGradient>
	<circle opacity="0.6" fill="url(#SVGID_16_)" cx="94.044" cy="162.246" r="6.557"/>
	<radialGradient id="SVGID_17_" cx="117.0762" cy="130.9609" r="23.1591" gradientUnits="userSpaceOnUse">
		<stop  offset="0" style="stop-color:#FFCDB0"/>
		<stop  offset="0.5" style="stop-color:#FFC369"/>
		<stop  offset="1" style="stop-color:#FF9245"/>
	</radialGradient>
	<path fill="url(#SVGID_17_)" stroke="#000000" d="M96.003,143.878c9.199,12.358,26.689,14.466,33.246,10.017
		c9.501-6.448,14.753-32.55-1.874-48.005C126.673,133.053,109.886,146.4,96.003,143.878z"/>
	<radialGradient id="SVGID_18_" cx="116.7402" cy="130.7578" r="23.1596" gradientUnits="userSpaceOnUse">
		<stop  offset="0" style="stop-color:#FFCDB0"/>
		<stop  offset="0.5" style="stop-color:#FFC369"/>
		<stop  offset="1" style="stop-color:#FF9245"/>
	</radialGradient>
	<path opacity="0.4" fill="url(#SVGID_18_)" d="M95.666,143.677c9.2,12.356,26.69,14.464,33.247,10.015
		c9.502-6.446,14.754-32.551-1.873-48.006C146.674,138.237,127.003,150.648,95.666,143.677z"/>
	<radialGradient id="SVGID_19_" cx="63.6411" cy="117.9883" r="51.9875" gradientUnits="userSpaceOnUse">
		<stop  offset="0" style="stop-color:#FFDCB5"/>
		<stop  offset="0.5" style="stop-color:#FFBF5E"/>
		<stop  offset="1" style="stop-color:#FF9042"/>
	</radialGradient>
	<path fill="url(#SVGID_19_)" stroke="#000000" d="M115.629,117.988c0,28.71-12.144,52.142-51.988,51.986
		c-41.039-0.161-51.987-23.276-51.987-51.986C11.653,89.275,34.929,66,63.641,66C92.352,66,115.629,89.275,115.629,117.988z"/>
	
		<radialGradient id="SVGID_20_" cx="75.5449" cy="131.5117" r="51.9863" gradientTransform="matrix(0.9527 0 0 1.0053 -5.6634 -14.5353)" gradientUnits="userSpaceOnUse">
		<stop  offset="0" style="stop-color:#FFDCB5"/>
		<stop  offset="0.5" style="stop-color:#FFBF5E"/>
		<stop  offset="1" style="stop-color:#FF9042"/>
	</radialGradient>
	<path opacity="0.3" fill="url(#SVGID_20_)" d="M115.837,117.673c0,28.862-11.568,52.417-49.528,52.261
		c-39.098-0.162-49.528-23.398-49.528-52.261c0-28.863,22.175-52.26,49.528-52.26C93.662,65.413,115.837,88.81,115.837,117.673z"/>
	<path opacity="0.1" fill="#FFFFFF" d="M113.757,118.184c0,27.87-11.568,50.616-49.528,50.464
		C25.13,168.492,14.7,146.054,14.7,118.184c0-27.871,22.175-50.464,49.529-50.464C91.581,67.719,113.757,90.313,113.757,118.184z"/>
	<path opacity="0.1" fill="#FFFFFF" d="M113.757,111.861c0,25.543-11.568,46.388-49.528,46.249
		C25.13,157.968,14.7,137.404,14.7,111.861s22.175-46.249,49.529-46.249C91.581,65.612,113.757,86.317,113.757,111.861z"/>
	<g>
		<g>
			<g>
				<path d="M41.472,110.992c-1.099-1.068-2.106-2.233-3.425-3.045c-1.652-1.016-3.158,1.58-1.514,2.591
					c1.086,0.668,1.911,1.694,2.818,2.575C40.738,114.462,42.862,112.342,41.472,110.992L41.472,110.992z"/>
			</g>
		</g>
		<g>
			<g>
				<path d="M39.388,115.292c-0.862,0.336-1.978,0.323-3.035,0.259c-0.817-0.05-1.5,0.72-1.5,1.5c0,0.855,0.684,1.45,1.5,1.5
					c0.705,0.043,1.411-0.009,2.113-0.082c0.547-0.058,1.197-0.08,1.72-0.284c0.761-0.296,1.281-0.995,1.047-1.845
					C41.034,115.612,40.151,114.995,39.388,115.292L39.388,115.292z"/>
			</g>
		</g>
		<g>
			<g>
				<path d="M40.053,121.29c-0.656,0.852-1.369,1.711-2.271,2.271c-1.641,1.016-0.136,3.612,1.514,2.59
					c1.383-0.856,2.369-2.076,3.349-3.347c0.5-0.649,0.1-1.679-0.538-2.052C41.332,120.299,40.551,120.644,40.053,121.29
					L40.053,121.29z"/>
			</g>
		</g>
	</g>
	<g>
		<g>
			<g>
				<path d="M84.313,121.545c1.1,1.068,2.106,2.234,3.427,3.045c1.653,1.016,3.159-1.58,1.514-2.59
					c-1.087-0.668-1.911-1.694-2.819-2.576C85.047,118.076,82.924,120.195,84.313,121.545L84.313,121.545z"/>
			</g>
		</g>
		<g>
			<g>
				<path d="M86.397,117.247c0.861-0.338,1.979-0.324,3.036-0.26c0.817,0.05,1.5-0.72,1.5-1.5c0-0.855-0.685-1.45-1.5-1.5
					c-0.705-0.043-1.411,0.008-2.113,0.082c-0.547,0.057-1.198,0.08-1.72,0.285c-0.761,0.299-1.282,0.993-1.048,1.845
					C84.752,116.925,85.636,117.547,86.397,117.247L86.397,117.247z"/>
			</g>
		</g>
		<g>
			<g>
				<path d="M85.731,111.249c0.657-0.852,1.37-1.712,2.272-2.272c1.64-1.018,0.135-3.614-1.514-2.591
					c-1.382,0.858-2.369,2.078-3.349,3.348c-0.501,0.649-0.1,1.679,0.538,2.053C84.453,112.24,85.233,111.895,85.731,111.249
					L85.731,111.249z"/>
			</g>
		</g>
	</g>
	<g>
		<g>
			<path d="M72.352,108.896c2.651-1.062,5.026-2.829,7.728-3.747c1.821-0.619,1.04-3.517-0.797-2.893
				c-2.721,0.924-5.073,2.683-7.729,3.747C69.782,106.713,70.554,109.615,72.352,108.896L72.352,108.896z"/>
		</g>
	</g>
	<g>
		<g>
			<path d="M55.414,106.784c-2.656-1.064-5.007-2.824-7.728-3.747c-1.837-0.623-2.619,2.275-0.798,2.893
				c2.703,0.917,5.078,2.684,7.728,3.747C56.414,110.397,57.187,107.494,55.414,106.784L55.414,106.784z"/>
		</g>
	</g>
	<path fill="#FFFFFF" stroke="#000000" d="M127.375,105.889c0,0-0.936,8.195-2.575,10.771c-1.64,2.577,1.873,3.279,3.044,1.406
		c0,0,0.468,2.81,2.576,2.341c2.107-0.468,3.513-1.64,3.747-2.575c0.233-0.937,2.81,2.342,3.278,1.171
		C137.913,117.832,130.186,107.06,127.375,105.889z"/>
	<g opacity="0.85">
		<path fill="#FFFFFF" d="M52.681,117.414c2.38-4.734,12.303-7.177,19.131-1.889c6.829,5.289-2.998,15.155-8.611,15.434
			C57.588,131.238,50.21,122.326,52.681,117.414z"/>
	</g>
	<g>
		<path d="M60.067,117.169c-1.346-1.562,4.925-1.313,6.283-0.848c1.357,0.466-1.562,3.927-3.047,3.938
			C61.817,120.27,61.412,118.73,60.067,117.169z"/>
		<g>
			<g>
				<path d="M57.804,123.799c1.585,0.742,2.759,1.159,4.379,0.278c1.301-0.708,2.034-2.531,2.238-3.905
					c0.17-1.144-1.502-2.138-2.056-0.866c-1.356,3.106,3.095,6.771,5.941,4.962c1.22-0.776,0.093-2.725-1.136-1.943
					c-0.785,0.499-3.32-0.837-2.863-1.884c-0.685-0.288-1.371-0.577-2.056-0.866c-0.271,1.82-1.188,3.275-3.312,2.281
					C57.634,121.244,56.491,123.184,57.804,123.799L57.804,123.799z"/>
			</g>
		</g>
	</g>
</g>
</svg>
