<?xml version="1.0" encoding="utf-8"?>
<!-- Generator: Adobe Illustrator 16.0.0, SVG Export Plug-In . SVG Version: 6.00 Build 0)  -->
<!DOCTYPE svg PUBLIC "-//W3C//DTD SVG 1.1//EN" "http://www.w3.org/Graphics/SVG/1.1/DTD/svg11.dtd">
<svg version="1.1" id="Layer_1" xmlns="http://www.w3.org/2000/svg" xmlns:xlink="http://www.w3.org/1999/xlink" x="0px" y="0px"
	 width="150px" height="225px" viewBox="0 0 150 225" enable-background="new 0 0 150 225" xml:space="preserve">
<path fill="#FFFFFF" stroke="#000000" stroke-miterlimit="10" d="M148.189,210.018c0,6.477-5.25,11.727-11.727,11.727H13.35
	c-6.476,0-11.725-5.25-11.725-11.727V13.619c0-6.476,5.25-11.725,11.725-11.725h123.115c6.477,0,11.727,5.25,11.727,11.725v196.398
	H148.189L148.189,210.018z"/>
<g>
	<g>
		<path fill="#C0272D" d="M128.957,104.741c-0.235-5.296-1.219-10.397-2.85-15.2c-0.317-1.204-0.652-2.418-1.017-3.647
			c-0.108,0.042-0.213,0.081-0.319,0.123c-8.298-19.813-27.869-33.732-50.693-33.732c-21.705,0-40.468,12.588-49.391,30.86h-0.001
			c-0.005,0.011-0.01,0.021-0.015,0.031c-1.832,3.758-3.249,7.756-4.188,11.934c-3.844,15.104-2.29,30.231,4.419,42.394
			c3.836,7.965,9.87,14.467,18.887,18.789c8.185,4.494,18.305,7.107,30.306,7.107C110.463,163.399,132.877,142.081,128.957,104.741z
			"/>
		<g>
			<path d="M134.957,104.741c-0.428-7.095-2.131-13.646-4.08-20.442c-0.834-2.906-4.302-5.378-7.381-4.191
				c-0.106,0.041-0.213,0.082-0.319,0.123c2.259,0.92,4.517,1.839,6.775,2.758c-9.268-21.357-29.867-35.097-52.916-36.626
				C53.122,44.776,30.163,58.99,19.507,80.116c1.727-0.99,3.454-1.981,5.181-2.972c0,0,0,0-0.001,0
				c-1.964,0-4.307,1.108-5.181,2.972c-9.821,20.951-9.541,45.479,2.938,65.244c11.291,17.883,34.379,24.449,54.386,23.998
				c16.292-0.367,32.878-5.488,44.411-17.426C133.295,139.458,136.572,121.466,134.957,104.741c-0.737-7.631-12.744-7.703-12,0
				c1.252,12.963-0.178,26.76-8.793,37.135c-8.195,9.871-20.897,14.203-33.335,15.268c-16.615,1.424-35.279-2.5-46.51-15.713
				c-12.564-14.779-12.309-38.497-4.452-55.258c-1.727,0.99-3.454,1.981-5.181,2.972c0,0,0,0,0.001,0
				c2.012,0,4.246-1.118,5.181-2.972c8.822-17.488,26.065-28.129,45.693-27.869c19.589,0.26,36.401,13.163,44.029,30.741
				c0.981,2.262,4.511,3.63,6.775,2.758c0.106-0.041,0.213-0.082,0.319-0.123c-2.46-1.397-4.92-2.794-7.381-4.191
				c1.647,5.742,3.29,11.253,3.652,17.253C123.421,112.429,135.424,112.476,134.957,104.741z"/>
		</g>
	</g>
	<g>
		<g>
			<path d="M92.814,58.741c-0.988-5.025,2.313-10.832,6.568-13.39c1.43-0.86,3.085-1.511,4.751-1.696
				c1.012-0.112,1.866,0.079,2.214,1.13c0.129,0.766,0.101,1.528-0.084,2.288c-1.989,0.983-2.947,0.849-2.874-0.403
				c0.221-0.835,0.441-1.671,0.662-2.507c0.094,0.051,0.188,0.103,0.281,0.154c-1.535-1.177-3.027,1.431-1.514,2.591
				c0.621,0.476,1.351,0.435,2.029,0.148c1.015-0.428,1.522-1.618,0.662-2.507c-3.799-3.928-6.931,2.722-3.308,5.752
				c4.681,3.915,8.99-2.998,6.703-7.225c-2.366-4.373-8.371-1.919-11.578,0.009c-5.251,3.157-8.581,10.48-7.406,16.453
				C90.295,61.436,93.187,60.63,92.814,58.741L92.814,58.741z"/>
		</g>
	</g>
	<g>
		<g>
			<path d="M64.821,56.501c0.358-5.137-2.358-10.812-5.738-14.526c-2.994-3.292-9.982-4.818-12.147,0.364
				c-0.943,2.258-0.041,4.282,1.805,5.697c1.378,1.056,5.457,1.446,6.323-0.594c1.573-3.702-4.177-7.09-6.234-3.247
				c-0.913,1.705,1.677,3.22,2.59,1.514c0.083-0.344,0.252-0.376,0.509-0.097c0.893,0.503,0.187,0.234,0.245,0.227
				c-2.028,0.252-3.7-1.732-1.647-3.221c2.269-1.646,4.755-0.201,6.437,1.478c2.967,2.962,5.153,8.191,4.859,12.405
				C61.687,58.433,64.688,58.42,64.821,56.501L64.821,56.501z"/>
		</g>
	</g>
	<g>
		<path d="M25.378,100.384c0,0-10.559-3.959-14.519,0c-3.959,3.96,0.66,1.32,0.66,1.32S24.059,100.055,25.378,100.384z"/>
		<path d="M24.718,112.923c0,0-10.559-3.959-14.518,0c-3.959,3.959,0.66,1.32,0.66,1.32S23.399,112.593,24.718,112.923z"/>
		<path d="M25.996,122.052c0,0-11.185,1.43-12.837,6.779s1.2,0.859,1.2,0.859S24.676,122.376,25.996,122.052z"/>
	</g>
	<g>
		<path d="M125.358,99.395c0,0,10.559-3.96,14.518,0c3.959,3.959-0.659,1.32-0.659,1.32S126.679,99.064,125.358,99.395z"/>
		<path d="M126.019,111.933c0,0,10.559-3.959,14.518,0c3.959,3.961-0.66,1.32-0.66,1.32S127.339,111.602,126.019,111.933z"/>
		<path d="M124.74,121.062c0,0,11.186,1.43,12.837,6.779c1.652,5.35-1.199,0.859-1.199,0.859S126.062,121.386,124.74,121.062z"/>
	</g>
	<linearGradient id="SVGID_1_" gradientUnits="userSpaceOnUse" x1="19.0742" y1="106.9009" x2="128.9492" y2="106.9009">
		<stop  offset="0.0056" style="stop-color:#FFFDE3"/>
		<stop  offset="0.4494" style="stop-color:#FFFBC8"/>
		<stop  offset="1" style="stop-color:#FFF78F"/>
	</linearGradient>
	<path fill="url(#SVGID_1_)" stroke="#000000" d="M128.949,106.9c0,30.343-12.833,55.104-54.938,54.938
		c-43.369-0.17-54.937-24.596-54.937-54.938c0-30.341,24.595-54.938,54.937-54.938S128.949,76.56,128.949,106.9z"/>
	<linearGradient id="SVGID_2_" gradientUnits="userSpaceOnUse" x1="24.1475" y1="108.2622" x2="129.0732" y2="108.2622">
		<stop  offset="0.0056" style="stop-color:#FFFDE3"/>
		<stop  offset="0.4494" style="stop-color:#FFFBC8"/>
		<stop  offset="1" style="stop-color:#FFF78F"/>
	</linearGradient>
	<path opacity="0.4" fill="url(#SVGID_2_)" d="M129.073,108.262c0,28.976-12.255,52.622-52.464,52.464
		c-41.416-0.162-52.462-23.488-52.462-52.464c0-28.975,23.486-52.464,52.462-52.464C105.584,55.798,129.073,79.287,129.073,108.262z
		"/>
	<linearGradient id="SVGID_3_" gradientUnits="userSpaceOnUse" x1="74.5986" y1="72.9927" x2="72.3714" y2="187.5712">
		<stop  offset="0" style="stop-color:#F27E5F"/>
		<stop  offset="0.5" style="stop-color:#EC1C24"/>
		<stop  offset="1" style="stop-color:#CF232A"/>
	</linearGradient>
	<path fill="url(#SVGID_3_)" stroke="#000000" d="M125.024,85.571c14.519,48.934-8.889,77.506-50.996,77.506
		c-48.565,0-66.383-42.717-49.408-80.255C65.88,98.994,90.065,99.396,125.024,85.571z"/>
	<linearGradient id="SVGID_4_" gradientUnits="userSpaceOnUse" x1="75.5244" y1="76.9434" x2="73.4836" y2="181.9342">
		<stop  offset="0" style="stop-color:#F27E5F"/>
		<stop  offset="0.5" style="stop-color:#EC1C24"/>
		<stop  offset="1" style="stop-color:#CF232A"/>
	</linearGradient>
	<path opacity="0.3" fill="url(#SVGID_4_)" d="M123.618,88.436c13.839,44.86-8.474,71.054-48.608,71.054
		c-46.292,0-63.275-39.162-47.097-73.573C67.242,100.74,90.296,101.11,123.618,88.436z"/>
	<path opacity="0.5" fill="#FFFFFF" d="M128.813,114.964c2.565,34.596-32.882,50.115-57.02,48.084
		c-46.403-3.908-56.884-35.439-52.044-65.015C57.139,178.507,127.261,94.056,128.813,114.964z"/>
	<circle fill="#E6E6E6" cx="57.462" cy="120.716" r="6.599"/>
	<ellipse fill="#F2F2F2" cx="57.91" cy="120.565" rx="6.021" ry="6.352"/>
	<circle fill="#E6E6E6" cx="86.829" cy="124.345" r="3.299"/>
	<circle fill="#E6E6E6" cx="97.881" cy="143.978" r="5.114"/>
	<path fill="#E6E6E6" d="M128.813,116.991c-0.59,2.73-8.295,0-8.161-9.898c0.133-9.898,6.955-12.744,7.68-10.064
		C129.401,100.988,129.883,112.042,128.813,116.991z"/>
	<path fill="#F2F2F2" d="M127.522,116.255c-0.483,2.475-6.803,0-6.693-8.976c0.109-8.975,5.704-11.554,6.299-9.125
		C128.006,101.745,128.4,111.769,127.522,116.255z"/>
	<circle fill="#E6E6E6" cx="29.087" cy="97.948" r="5.113"/>
	<ellipse fill="#F2F2F2" cx="29.34" cy="98.603" rx="4.603" ry="4.496"/>
	<circle fill="#E6E6E6" cx="100.852" cy="106.362" r="4.289"/>
	<circle fill="#F2F2F2" cx="100.605" cy="105.949" r="4.042"/>
	<path fill="#E6E6E6" d="M37.995,151.071c-2.825,0-12.207-10.045-12.207-12.867c0-2.824,8.248-3.629,12.866,0.99
		C43.274,143.812,40.818,151.071,37.995,151.071z"/>
	<path fill="#F2F2F2" d="M38.2,150.772c-2.613,0-11.295-9.605-11.295-12.307s7.632-3.471,11.905,0.945
		C43.084,143.831,40.813,150.772,38.2,150.772z"/>
	<circle cx="63.659" cy="74.317" r="3.134"/>
	<circle cx="84.61" cy="72.338" r="3.134"/>
	<g>
		<g>
			<path d="M71.901,78.513c-0.55,2.638,0.166,6.34,3.339,6.886c3.587,0.616,4.928-3.212,4.677-6.108c-0.165-1.912-3.167-1.929-3,0
				c0.083,0.963,0.077,2.018-0.354,2.767c-0.081,0.143-0.294,0.316-0.354,0.354c-0.195,0.118,0.146-0.021-0.229,0.071
				c0.35-0.086-0.105-0.01-0.216-0.016c0.36,0.021-0.014-0.022-0.093-0.045c-0.161-0.058-0.161-0.057,0,0.004
				c-0.079-0.04-0.155-0.084-0.229-0.132c-0.126-0.076-0.28-0.251-0.438-0.511c-0.38-0.63-0.392-1.595-0.209-2.473
				C75.188,77.422,72.296,76.619,71.901,78.513L71.901,78.513z"/>
		</g>
	</g>
	<path fill="none" stroke="#000000" d="M74.87,95.436c0,0-6.929,62.362-2.31,67.312"/>
	<ellipse fill="#F2F2F2" cx="87.224" cy="124.028" rx="2.737" ry="2.889"/>
	<ellipse fill="#F2F2F2" cx="97.284" cy="143.745" rx="4.714" ry="4.783"/>
</g>
</svg>
