<?xml version="1.0" encoding="utf-8"?>
<!-- Generator: Adobe Illustrator 16.0.0, SVG Export Plug-In . SVG Version: 6.00 Build 0)  -->
<!DOCTYPE svg PUBLIC "-//W3C//DTD SVG 1.1//EN" "http://www.w3.org/Graphics/SVG/1.1/DTD/svg11.dtd">
<svg version="1.1" id="Layer_1" xmlns="http://www.w3.org/2000/svg" xmlns:xlink="http://www.w3.org/1999/xlink" x="0px" y="0px"
	 width="150px" height="225px" viewBox="0 0 150 225" enable-background="new 0 0 150 225" xml:space="preserve">
<path fill="#FFFFFF" stroke="#000000" stroke-miterlimit="10" d="M148.189,210.018c0,6.476-5.25,11.726-11.726,11.726H13.35
	c-6.476,0-11.725-5.25-11.725-11.726V13.619c0-6.476,5.25-11.725,11.725-11.725h123.115c6.477,0,11.727,5.25,11.727,11.725v196.398
	H148.189z"/>
<g>
	<g>
		<linearGradient id="SVGID_1_" gradientUnits="userSpaceOnUse" x1="18.5688" y1="113.3418" x2="138.7178" y2="113.3418">
			<stop  offset="0" style="stop-color:#6C5034"/>
			<stop  offset="1" style="stop-color:#2E1000"/>
		</linearGradient>
		<path fill="url(#SVGID_1_)" d="M129.105,132.427l0.065,0.455c-2.684-1.007-5.099-3.508-8.136-3.267
			c-3.816,0.304-8.295,8.895-12.06,9.158c-5.307,0.373-7.539-2.966-8.154-4.136c5.143,0.044,9.67-3.773,10.497-9.158
			c0.722-4.692-1.584-9.172-5.431-11.332c4.157-1.885,6.799-6.408,6.201-11.299c-0.645-5.269-4.834-9.204-9.795-9.575
			c2.346-3.338,2.735-7.917,0.63-11.756c-1.459-2.66-3.834-4.454-6.484-5.198c-0.454-1.13-1.202-2.125-2.379-2.847
			c-2.011-1.234-4.076-1.125-5.919-0.451c-1.097-2.469-3.075-4.532-5.715-5.625c-4.037-1.672-8.47-0.615-11.375,2.322
			c-2.056-3.353-5.808-5.445-9.9-5.093c-3.716,0.32-6.813,2.58-8.438,5.73c-2.712-1.563-6.059-1.898-9.155-0.615
			c-2.263,0.939-4.031,2.594-5.167,4.609c-2.242-0.4-4.518-0.141-6.242,1.642c-0.713,0.736-1.175,1.54-1.455,2.37
			c-0.664,0.501-1.282,1.092-1.835,1.771c-3.151,3.856-3.244,9.317-0.549,13.276c-5.098,0.396-9.29,4.55-9.708,9.963
			c-0.393,5.097,2.686,9.67,7.195,11.247c-4.792,2.323-7.222,8.031-5.469,13.337c1.38,4.177,4.971,6.944,8.969,7.386
			c-2.817,4.08-2.594,9.777,0.826,13.654c1.802,2.041,4.178,3.223,6.64,3.521c0.043,0.79,0.196,1.553,0.453,2.271l-1.017,2.374
			l2.13-0.284c0.934,1.274,2.229,2.301,3.75,2.952l0.728,2.266l1.438-1.63c0.538,0.092,1.091,0.142,1.658,0.142
			c1.317,0,2.567-0.261,3.699-0.726l2.306,1.313l-0.038-1.941c0.376,0.097,0.758,0.182,1.153,0.237
			c4.769,0.672,9.214-2.027,11.076-6.322c1.88,4.034,6.061,6.636,10.626,6.184c4.249-0.421,7.655-3.368,8.961-7.261
			c0.225,1.647,0.929,3.216,2.128,4.485c0.648,0.687,1.395,1.227,2.198,1.634l0.894,2.431l1.354-1.67
			c1.553,0.285,3.194,0.135,4.744-0.435l2.093,1.152l-0.074-2.177c0.453-0.304,0.892-0.642,1.303-1.031
			c0.957-0.904,1.687-1.952,2.189-3.068l2.579-0.63l-1.85-1.881c0.276-1.953-0.094-3.941-1.131-5.618
			c0.757-1.853,0.991-3.888,0.701-5.866c1.917,1.565,5.144,2.289,7.618,2.322c4.547,0.061,6.251-5.925,13.148-9.586
			c2.276-1.208,4.99,0.501,7.659,1.199l0.049,0.343c3.99,4.896,7.979,0.362,9.431-4.172
			C135.815,131.156,131.463,130.25,129.105,132.427z M97.357,133.132c-3.984-1.667-13.582,6.39-15.281,11.804
			c-4.654-2.21-15.493-0.875-18.305,2.598c-2.766-2.597-9.838-4.056-14.76-3.469c-0.97-0.326-2.018-0.505-3.11-0.505
			c-0.412,0-0.816,0.028-1.214,0.077c-2.006-3.894-6.122-8.277-9.55-9.974c2.265-3.947-1.323-15.611-5.417-18.82
			c3.641-2.091,5.029-13.605,2.953-18.844c3.434-0.751,8.256-5.752,10.612-10.285c4.373-0.54,10.079-3.138,12.757-5.983
			c4.445,0.917,11.033,0.122,14.423-1.922c4.144,3.893,13.625,7.137,16.927,4.966c1.26,5.69,6.395,13.54,10.105,13.887
			c-1.31,4.884,0.007,13.722,2.788,17.041C96.639,116.897,94.797,128.998,97.357,133.132z M98.712,134.358
			c0.102,0.042,0.208,0.072,0.317,0.1c0.006,0.124,0.015,0.253,0.022,0.385C98.942,134.681,98.831,134.518,98.712,134.358z"/>
		<g>
			<path d="M123.319,134.021c0.022,0.152,0.044,0.304,0.065,0.455c2.938-2.259,5.876-4.517,8.814-6.775
				c-6.239-2.868-11.549-6.289-17.765-1.285c-2.11,1.698-3.847,3.774-5.75,5.69c-1.236,1.245-1.992,0.711-2.683-0.497
				c-1.727,3.01-3.454,6.019-5.181,9.028c17.087-0.916,22.264-22.507,8.095-31.671c0,3.454,0,6.907,0,10.361
				c13.87-7.424,11.146-29.559-5.027-31.84c1.195,2.938,2.391,5.876,3.586,8.814c6.034-10.016,1.409-21.937-9.44-25.768
				c1.195,0.919,2.391,1.838,3.586,2.757c-2.94-5.701-9.078-7.693-15.073-6.055c2.259,0.919,4.517,1.838,6.775,2.757
				c-5.37-10.364-18.001-11.958-26.513-4.517c3.141,0.405,6.283,0.81,9.423,1.214c-7.385-10.417-21.963-10.683-28.7,0.637
				c2.736-0.717,5.473-1.435,8.209-2.152c-8.493-4.095-17.356-1.814-22.53,6.146c1.727-0.991,3.454-1.981,5.181-2.972
				c-6.923-0.793-11.01,3.542-14.713,8.753c-4.17,5.868-4.159,13.207-0.549,19.333c1.195-2.938,2.39-5.876,3.585-8.814
				c-7.238,1.016-12.914,6.962-13.898,14.154c-1.174,8.577,3.705,15.392,11.385,18.628c-0.478-3.656-0.956-7.312-1.433-10.967
				c-13.503,7.637-10.864,28.902,4.933,31.689c-1.195-2.938-2.39-5.876-3.585-8.814c-6.053,10.192-0.955,23.65,11.051,25.99
				c-1.468-1.929-2.937-3.857-4.405-5.786c0.166,1.314,0.313,2.587,0.667,3.866c0.202-1.541,0.403-3.082,0.605-4.623
				c-0.339,0.791-0.678,1.583-1.017,2.374c-1.526,3.564,0.103,9.706,5.181,9.028c0.71-0.095,1.42-0.189,2.13-0.284
				c-1.414-0.586-2.829-1.172-4.243-1.758c1.444,1.635,3.043,2.861,4.964,3.891c-0.919-1.195-1.838-2.391-2.757-3.586
				c0.243,0.756,0.485,1.511,0.728,2.266c1.296,4.038,6.894,6.202,10.028,2.647c0.479-0.543,0.958-1.086,1.438-1.63
				c-1.414,0.586-2.829,1.172-4.243,1.758c2.407,0.206,4.657-0.023,6.952-0.798c-1.542-0.202-3.083-0.403-4.624-0.605
				c0.769,0.438,1.538,0.876,2.306,1.313c3.883,2.212,9.118-0.568,9.028-5.181c-0.013-0.647-0.025-1.294-0.038-1.941
				c-2.532,1.929-5.063,3.857-7.595,5.786c7.843,1.614,15.305-1.611,19.004-8.843c-3.454,0-6.908,0-10.361,0
				c7.316,13.513,25.11,10.907,30.554-2.511c-3.857,0-7.715,0-11.572,0c0.907,4.271,3.404,7.44,7.084,9.705
				c-0.919-1.195-1.838-2.391-2.758-3.586c0.298,0.811,0.596,1.621,0.894,2.431c1.391,3.783,6.929,6.473,10.028,2.647
				c0.451-0.557,0.902-1.113,1.354-1.67c-1.414,0.586-2.828,1.172-4.242,1.758c2.209,0.197,4.203-0.066,6.339-0.648
				c-1.541-0.202-3.082-0.403-4.623-0.605c0.697,0.384,1.396,0.769,2.093,1.152c3.851,2.12,9.188-0.502,9.028-5.181
				c-0.024-0.726-0.05-1.451-0.074-2.177c-0.586,1.414-1.172,2.828-1.758,4.242c1.882-1.489,3.305-3.19,4.431-5.313
				c-1.195,0.919-2.391,1.838-3.586,2.758c0.86-0.21,1.72-0.42,2.579-0.63c4.452-1.088,5.735-6.89,2.647-10.028
				c-0.616-0.627-1.232-1.254-1.85-1.881c0.586,1.414,1.172,2.828,1.758,4.242c0.186-3.172-0.545-5.826-1.95-8.646
				c0.202,1.541,0.403,3.082,0.605,4.623c0.813-2.456,1.121-4.881,0.915-7.461c-3.01,1.727-6.019,3.454-9.028,5.181
				c4.772,3.218,11.064,4.129,16.285,1.611c1.972-0.951,3.632-2.925,5.113-4.484c0.91-0.958,1.856-1.856,2.842-2.737
				c1.862-1.665,3.55-0.506,5.619,0.151c-1.397-1.397-2.794-2.794-4.191-4.191c0.669,4.693,6.848,7.254,10.952,6.648
				c5.426-0.8,8.334-5.793,10.1-10.478c2.083-5.529-4.586-8.629-8.814-6.775c-3.212,1.408-6.538,0.74-9.612,2.902
				c-6.276,4.414-0.29,14.825,6.057,10.361c2.505-1.761,6.679-1.616,9.612-2.902c-2.938-2.259-5.876-4.517-8.814-6.775
				c-0.273,0.813-0.691,1.543-1.254,2.189c2.478,2.497,3.593,3.044,3.347,1.64c-0.292-2.05-2.376-3.614-4.191-4.191
				c-2.912-0.924-6.307-2.503-9.435-1.604c-3.079,0.884-5.383,2.568-7.859,4.54c-1.901,1.514-3.447,3.454-5.201,5.127
				c-0.418,0.399,0.777,0.304-0.961,0.056c-1.386-0.198-2.397-0.681-3.536-1.448c-3.626-2.444-9.383,0.747-9.028,5.181
				c0.132,1.645,0.032,2.703-0.487,4.271c-0.77,2.326,0.772,3.645,1.003,5.747c0.39,3.554,1.033,5.06,3.521,7.589
				c0.882-3.343,1.765-6.686,2.647-10.028c-5.749,1.404-10.609,6.606-10.402,12.692c3.01-1.727,6.019-3.454,9.028-5.181
				c-4.981-2.743-11.683-2.772-15.461,1.891c3.343,0.882,6.686,1.765,10.028,2.647c-0.456-1.239-0.831-2.724-1.499-3.864
				c-1.217-2.077-3.2-2.232-3.721-4.686c-1.365-6.427-9.56-4.961-11.572,0c-1.824,4.497-6.761,3.077-8.62-0.356
				c-2.077-3.836-8.325-3.98-10.361,0c-1.129,2.206-2.76,3.882-5.453,3.327c-3.724-0.766-7.675,1.683-7.595,5.786
				c0.013,0.647,0.025,1.294,0.038,1.941c3.009-1.727,6.019-3.454,9.028-5.181c-5.118-2.915-12.299-2.779-16.372,1.839
				c3.343,0.882,6.686,1.765,10.028,2.647c-1.716-5.344-6.46-10.13-12.393-9.339c1.727,3.01,3.454,6.019,5.181,9.028
				c1.204-2.813,1.772-4.578,1.383-7.674c-0.318-2.529-1.579-5.235-4.405-5.786c-4.409-0.858-6.203-4.45-3.88-8.361
				c1.841-3.1,0.272-8.133-3.585-8.814c-5.318-0.938-7.085-6.917-2.066-9.756c4.991-2.822,3.041-9.081-1.433-10.967
				c-5.695-2.399-2.123-8.988,2.513-9.639c3.912-0.549,5.361-5.801,3.585-8.814c-1.221-2.072-1.45-3.837-0.305-6.018
				c0.647-1.231,2.087-1.672,2.689-2.972c0.739-1.595,0.781-1.238,2.516-1.04c2.103,0.241,4.117-1.334,5.181-2.972
				c1.424-2.191,3.682-3.013,6.112-1.841c2.962,1.429,6.438,0.822,8.209-2.152c1.862-3.128,5.662-3.904,7.978-0.637
				c2.327,3.283,6.338,3.912,9.423,1.214c2.988-2.612,6.066-1,7.667,2.088c1.229,2.374,4.281,3.439,6.775,2.757
				c1.811-0.495,1.218,0.512,2.461,1.755c1.088,1.088,2.431,1.355,3.749,2.025c3.045,1.549,2.606,5.267,1.167,7.657
				c-1.811,3.005-0.3,8.266,3.586,8.814c5.618,0.792,7.593,7,2.16,9.908c-4.148,2.221-3.623,8.019,0,10.361
				c3.998,2.586,3.085,9.035-2.038,9.31c-4.501,0.241-7.528,4.923-5.181,9.028c3.165,5.535,9.535,8.018,15.692,6.734
				c2.972-0.619,5.499-3.411,7.482-5.505c1.079-1.14,2.141-2.276,3.294-3.342c0.531-0.414,0.563-0.278,0.098,0.407
				c1.343,0.652,2.573,1.476,3.936,2.102c5.077,2.334,9.583-1.425,8.814-6.775c-0.022-0.152-0.044-0.304-0.065-0.455
				C133.793,123.196,122.232,126.456,123.319,134.021z"/>
			<path d="M98.952,127.346c-9.534-2.606-19.619,7.975-22.662,15.995c2.461-1.397,4.921-2.794,7.381-4.191
				c-7.131-2.882-18.643-1.543-24.142,4.142c2.829,0,5.657,0,8.485,0c-6.265-5.036-15.49-6.152-23.326-5.654
				c1.727,0.99,3.454,1.981,5.181,2.972c-2.765-4.925-6.745-9.349-11.703-12.126c0.717,2.736,1.435,5.473,2.152,8.209
				c3.641-8.054,0.148-20.266-6.354-26.091c-0.405,3.141-0.81,6.282-1.214,9.423c7.25-5.295,8.449-17.592,5.71-25.62
				c-1.397,2.46-2.794,4.92-4.19,7.381c6.314-2,11.033-7.422,14.198-13.042c-1.195,0.919-2.39,1.838-3.585,2.757
				c5.698-0.938,11.207-3.543,15.405-7.526c-1.946,0.514-3.892,1.029-5.838,1.543c6.489,1.07,13.151,0.575,19.047-2.527
				c-2.424-0.313-4.848-0.625-7.271-0.938c6.159,5.308,16.296,9.859,24.198,5.904c-2.938-1.195-5.876-2.39-8.814-3.585
				c1.785,6.878,6.65,16.399,14.297,18.078c-1.397-2.46-2.794-4.92-4.191-7.381c-1.503,6.888-0.861,15.784,3.394,21.664
				c0.313-2.424,0.625-4.848,0.938-7.271c-6.127,6.294-7.854,18.942-3.868,26.7c3.537,6.885,13.891,0.813,10.361-6.057
				c-1.46-2.843-0.162-9.946,1.991-12.159c1.746-1.793,2.515-5.092,0.938-7.271c-2.418-3.343-3.052-8.437-2.183-12.417
				c0.667-3.06-0.873-6.653-4.191-7.381c-3.049-0.669-5.213-6.992-5.914-9.697c-1.023-3.941-5.422-5.284-8.814-3.585
				c0.933-0.17,0.79-0.214-0.427-0.132c-1.042,0.006-2.111-0.403-3.098-0.682c-2.177-0.616-4.416-1.736-6.132-3.214
				c-2.135-1.84-4.729-2.275-7.271-0.938c-2.696,1.418-5.807,1.531-8.79,1.436c-2.066-0.065-3.682-0.657-5.633,0.486
				c-1.563,0.916-2.785,2.258-4.388,3.18c-3.281,1.886-8.487,1.344-10.521,4.956c-1.522,2.703-3.87,6.527-7.027,7.527
				c-2.97,0.941-5.277,4.198-4.19,7.381c0.813,2.38,0.808,4.691,0.656,7.188c-0.064,1.057-0.32,2.076-0.563,3.103
				c-0.201,0.852-1.581,2.721-0.289,1.777c-2.939,2.146-4.334,6.628-1.214,9.423c2.055,1.841,5.737,8.766,4.479,11.55
				c-1.327,2.934-0.917,6.489,2.152,8.209c3.242,1.816,5.595,4.609,7.398,7.821c0.979,1.745,3.137,3.102,5.181,2.972
				c2.66-0.169,5.609,0.246,8.317,0.357c1.928,0.078,4.958,0.523,6.523,1.781c2.513,2.02,6.03,2.538,8.485,0
				c2.611-2.698,9.214-2.369,12.468-1.054c3.236,1.308,6.329-1.419,7.381-4.191c0.724-1.908,6.229-8.07,7.9-7.612
				C103.239,140.962,106.408,129.385,98.952,127.346z"/>
			<path d="M97.117,140.145c0.104,0.04,0.209,0.073,0.317,0.1c-1.469-1.929-2.937-3.857-4.405-5.786
				c0.007,0.128,0.015,0.257,0.022,0.385c3.727-1.01,7.454-2.019,11.181-3.028c-0.11-0.163-0.223-0.325-0.34-0.484
				c-0.313-0.404-0.625-0.81-0.938-1.214c-0.748-0.744-1.631-1.259-2.647-1.544c-1.548-0.426-3.237-0.206-4.623,0.605
				c-1.341,0.785-2.345,2.086-2.758,3.586c-0.39,1.416-0.3,3.388,0.605,4.623c0.116,0.159,0.229,0.321,0.34,0.484
				c0.533,0.901,1.251,1.619,2.152,2.152c1.386,0.812,3.075,1.031,4.623,0.605c2.455-0.676,4.567-3.146,4.405-5.786
				c-0.008-0.128-0.016-0.257-0.022-0.385c-0.003-1.083-0.276-2.093-0.819-3.028c-0.785-1.34-2.086-2.347-3.586-2.758
				c-0.108-0.025-0.214-0.059-0.317-0.1c-1.463-0.52-3.319-0.158-4.623,0.605c-1.341,0.785-2.345,2.086-2.758,3.586
				c-0.426,1.548-0.206,3.237,0.605,4.623C94.363,138.808,95.602,139.606,97.117,140.145z"/>
		</g>
	</g>
	<linearGradient id="SVGID_2_" gradientUnits="userSpaceOnUse" x1="99.1504" y1="135.7744" x2="134.5371" y2="135.7744">
		<stop  offset="0" style="stop-color:#F7E7C3"/>
		<stop  offset="0.4888" style="stop-color:#F4E0AD"/>
		<stop  offset="1" style="stop-color:#D3BD94"/>
	</linearGradient>
	<path fill="url(#SVGID_2_)" stroke="#000000" d="M100.806,134.345c0,0,1.923,4.984,8.342,4.533
		c3.765-0.264,8.244-8.854,12.06-9.157c4.823-0.384,8.074,6.151,13.33,2.629c-3.984,3.983-8.993-2.104-12.785-0.091
		c-6.898,3.661-8.603,9.646-13.148,9.586c-3.648-0.048-8.933-1.597-9.243-5.128C98.447,126.364,100.806,134.345,100.806,134.345z"/>
	<linearGradient id="SVGID_3_" gradientUnits="userSpaceOnUse" x1="99.0234" y1="136.498" x2="134.5371" y2="136.498">
		<stop  offset="0" style="stop-color:#F7E7C3"/>
		<stop  offset="0.4888" style="stop-color:#F4E0AD"/>
		<stop  offset="1" style="stop-color:#D3BD94"/>
	</linearGradient>
	<path fill="url(#SVGID_3_)" d="M100.679,135.796c0,0,1.923,4.983,8.342,4.533c3.765-0.264,9.912-8.854,13.729-9.158
		c4.822-0.383,6.532,4.701,11.788,1.179c-3.984,3.983-9.12-0.652-12.912,1.36c-6.898,3.66-8.476,8.195-13.021,8.135
		c-3.648-0.048-9.06-0.146-9.37-3.678C98.32,127.815,100.679,135.796,100.679,135.796z"/>
	<linearGradient id="SVGID_4_" gradientUnits="userSpaceOnUse" x1="65.5425" y1="54.2432" x2="65.5425" y2="140.8117">
		<stop  offset="0" style="stop-color:#6C5034"/>
		<stop  offset="1" style="stop-color:#2E1000"/>
	</linearGradient>
	<path fill="url(#SVGID_4_)" stroke="#000000" d="M106.06,114.253c4.157-1.886,6.799-6.409,6.201-11.299
		c-0.645-5.27-4.834-9.205-9.794-9.576c2.345-3.338,2.734-7.917,0.628-11.755c-2.767-5.048-8.836-6.979-13.823-4.53
		c-0.219-4.12-2.704-7.947-6.674-9.591c-4.036-1.672-8.469-0.616-11.374,2.321c-2.056-3.352-5.808-5.444-9.9-5.092
		c-3.717,0.32-6.813,2.58-8.439,5.73c-2.711-1.564-6.058-1.899-9.154-0.615c-2.954,1.224-5.068,3.667-6.027,6.541
		c-3.208-0.182-6.452,1.13-8.672,3.849c-3.152,3.857-3.245,9.317-0.55,13.276c-5.098,0.397-9.289,4.551-9.707,9.964
		c-0.394,5.097,2.685,9.668,7.195,11.248c-4.793,2.323-7.223,8.031-5.47,13.335c1.38,4.179,4.971,6.945,8.968,7.386
		c-2.816,4.081-2.594,9.778,0.826,13.654c3.624,4.107,9.572,4.738,13.873,1.688c0.837,4.495,4.379,8.152,9.026,8.809
		c4.77,0.672,9.214-2.027,11.076-6.322c1.88,4.035,6.062,6.635,10.626,6.184c5.029-0.498,8.878-4.536,9.46-9.491
		c3.949,2.92,9.454,2.762,13.222-0.686c4.18-3.825,4.698-10.31,1.308-14.816c0.15,0.061,0.309,0.107,0.476,0.135
		c5.786,0.971,11.217-3.065,12.13-9.015C112.213,120.892,109.905,116.412,106.06,114.253z M97.529,133.237
		c-3.984-1.668-13.583,6.389-15.281,11.803c-4.655-2.21-15.492-0.875-18.305,2.598c-3.585-3.366-14.413-4.824-18.401-2.385
		c-1.583-4.197-6.35-9.565-10.232-11.485c2.265-3.946-1.322-15.61-5.417-18.82c3.641-2.091,5.03-13.606,2.953-18.843
		c3.434-0.752,8.256-5.752,10.612-10.286c4.373-0.539,10.079-3.137,12.757-5.982c4.446,0.916,11.033,0.122,14.424-1.923
		c4.145,3.892,13.625,7.137,16.926,4.966c1.261,5.69,6.396,13.539,10.107,13.886c-1.311,4.884,0.005,13.724,2.788,17.042
		C96.811,117.003,94.97,129.104,97.529,133.237z"/>
	<linearGradient id="SVGID_5_" gradientUnits="userSpaceOnUse" x1="20.5083" y1="112.3818" x2="109.9902" y2="112.3818">
		<stop  offset="0" style="stop-color:#6C5034"/>
		<stop  offset="1" style="stop-color:#2E1000"/>
	</linearGradient>
	<path opacity="0.4" fill="url(#SVGID_5_)" d="M103.981,114.349c3.974-1.803,6.5-6.127,5.928-10.803
		c-0.616-5.037-4.621-8.798-9.362-9.153c2.241-3.191,2.614-7.568,0.602-11.238c-2.646-4.825-8.448-6.671-13.217-4.33
		c-0.208-3.939-2.584-7.597-6.378-9.169c-3.859-1.598-8.098-0.587-10.874,2.22c-1.965-3.205-5.552-5.204-9.464-4.868
		c-3.554,0.306-6.513,2.466-8.067,5.477c-2.593-1.493-5.792-1.813-8.752-0.588c-2.824,1.17-4.846,3.507-5.762,6.253
		c-3.067-0.174-6.167,1.08-8.291,3.679c-3.013,3.688-3.101,8.907-0.524,12.691c-4.874,0.38-8.881,4.351-9.28,9.525
		c-0.376,4.873,2.567,9.243,6.878,10.752c-4.582,2.221-6.904,7.677-5.229,12.749c1.319,3.994,4.752,6.64,8.573,7.061
		c-2.692,3.901-2.48,9.348,0.79,13.053c3.464,3.926,9.15,4.529,13.261,1.613c0.801,4.298,4.187,7.795,8.63,8.421
		c4.56,0.643,8.808-1.938,10.588-6.043c1.797,3.856,5.794,6.342,10.159,5.91c4.807-0.476,8.486-4.337,9.043-9.072
		c3.774,2.791,9.037,2.64,12.64-0.656c3.996-3.656,4.491-9.855,1.249-14.164c0.144,0.059,0.296,0.103,0.455,0.13
		c5.531,0.928,10.723-2.931,11.596-8.618C109.863,120.694,107.658,116.412,103.981,114.349z M95.827,132.496
		c-3.81-1.594-12.984,6.108-14.608,11.284c-4.45-2.113-14.81-0.837-17.499,2.483c-3.427-3.219-13.779-4.611-17.59-2.279
		c-1.514-4.013-6.072-9.145-9.782-10.98c2.165-3.772-1.265-14.923-5.178-17.992c3.481-1.998,4.808-13.005,2.822-18.013
		c3.283-0.719,7.893-5.499,10.145-9.832c4.181-0.516,9.636-3,12.196-5.72c4.25,0.876,10.547,0.116,13.788-1.837
		c3.962,3.721,13.025,6.822,16.182,4.747c1.204,5.439,6.113,12.942,9.661,13.276c-1.253,4.668,0.006,13.118,2.665,16.291
		C95.14,116.978,93.38,128.545,95.827,132.496z"/>
	<linearGradient id="SVGID_6_" gradientUnits="userSpaceOnUse" x1="30.5229" y1="81.5742" x2="46.9292" y2="81.5742">
		<stop  offset="0" style="stop-color:#F7E7C3"/>
		<stop  offset="0.4888" style="stop-color:#F4E0AD"/>
		<stop  offset="1" style="stop-color:#D3BD94"/>
	</linearGradient>
	<path fill="url(#SVGID_6_)" stroke="#000000" d="M33.77,88.859c0,0-6.215-7.834-1.448-12.763
		c4.768-4.929,13.763,1.764,14.572,1.967C47.702,78.265,34.584,87.275,33.77,88.859z"/>
	<g>
		<path fill="#4D4D4D" d="M35.479,87.68c0,0-5.636-7.093-2.459-10.466c3.176-3.372,10.397,1.965,11.119,2.207
			C44.86,79.663,36.332,86.209,35.479,87.68z"/>
		<radialGradient id="SVGID_7_" cx="39.1377" cy="82.2773" r="5.4387" gradientUnits="userSpaceOnUse">
			<stop  offset="0.0056" style="stop-color:#FCE6F0"/>
			<stop  offset="0.4494" style="stop-color:#F9CADE"/>
			<stop  offset="1" style="stop-color:#F78AB9"/>
		</radialGradient>
		<path fill="url(#SVGID_7_)" d="M37.022,87.717c0,0-5.267-6.679-2.537-9.84c2.731-3.161,9.356,1.876,10.045,2.048
			C45.22,80.099,37.716,86.368,37.022,87.717z"/>
		
			<radialGradient id="SVGID_8_" cx="8.6333" cy="264.1055" r="5.4385" gradientTransform="matrix(0.9311 0.0068 0.0068 0.8477 30.2955 -141.4893)" gradientUnits="userSpaceOnUse">
			<stop  offset="0.0056" style="stop-color:#FCE6F0"/>
			<stop  offset="0.4494" style="stop-color:#F9CADE"/>
			<stop  offset="1" style="stop-color:#F78AB9"/>
		</radialGradient>
		<path fill="url(#SVGID_8_)" d="M38.196,87.048c0,0-4.95-5.697-2.428-8.359c2.521-2.66,8.724,1.654,9.367,1.806
			C45.777,80.646,38.833,85.91,38.196,87.048z"/>
	</g>
	<linearGradient id="SVGID_9_" gradientUnits="userSpaceOnUse" x1="82.084" y1="80.4526" x2="97.1992" y2="80.4526">
		<stop  offset="0" style="stop-color:#F7E7C3"/>
		<stop  offset="0.4888" style="stop-color:#F4E0AD"/>
		<stop  offset="1" style="stop-color:#D3BD94"/>
	</linearGradient>
	<path fill="url(#SVGID_9_)" stroke="#000000" d="M82.084,77.752c0,0,6.305-7.763,12.148-4.175
		c5.844,3.588,1.256,13.818,1.232,14.652C95.441,89.063,83.807,78.205,82.084,77.752z"/>
	<g>
		<path fill="#4D4D4D" d="M83.411,80.007c0,0,5.861-6.907,9.787-4.449c3.926,2.461,0.094,10.581-0.003,11.336
			C93.1,87.649,85.021,80.557,83.411,80.007z"/>
		
			<radialGradient id="SVGID_10_" cx="1337.3008" cy="-397.7368" r="5.4387" gradientTransform="matrix(0.1944 0.9809 -0.9809 0.1944 -560.6891 -1151.8945)" gradientUnits="userSpaceOnUse">
			<stop  offset="0.0056" style="stop-color:#FCE6F0"/>
			<stop  offset="0.4494" style="stop-color:#F9CADE"/>
			<stop  offset="1" style="stop-color:#F78AB9"/>
		</radialGradient>
		<path fill="url(#SVGID_10_)" d="M83.675,81.526c0,0,5.526-6.465,9.158-4.401c3.632,2.065-0.021,9.542-0.057,10.251
			C92.741,88.086,85.134,81.945,83.675,81.526z"/>
		
			<radialGradient id="SVGID_11_" cx="1405.9805" cy="-312.9629" r="5.4392" gradientTransform="matrix(0.1744 0.9147 -0.8302 0.1715 -415.5818 -1148.826)" gradientUnits="userSpaceOnUse">
			<stop  offset="0.0056" style="stop-color:#FCE6F0"/>
			<stop  offset="0.4494" style="stop-color:#F9CADE"/>
			<stop  offset="1" style="stop-color:#F78AB9"/>
		</radialGradient>
		<path fill="url(#SVGID_11_)" d="M84.558,82.548c0,0,4.627-5.963,7.728-4.007c3.101,1.957,0.074,8.879,0.051,9.54
			C92.313,88.74,85.799,82.952,84.558,82.548z"/>
	</g>
	<g>
		<polygon fill="#C69C6D" stroke="#000000" points="37.459,154.729 36.371,157.267 39.091,156.904 		"/>
		<polygon fill="#C69C6D" stroke="#000000" points="42.134,159.569 42.979,162.2 44.793,160.142 		"/>
		<polygon fill="#C69C6D" stroke="#000000" points="49.678,159.933 52.079,161.3 52.024,158.556 		"/>
	</g>
	<linearGradient id="SVGID_12_" gradientUnits="userSpaceOnUse" x1="36.915" y1="152.1895" x2="55.2319" y2="152.1895">
		<stop  offset="0" style="stop-color:#F7E7C3"/>
		<stop  offset="0.4888" style="stop-color:#F4E0AD"/>
		<stop  offset="1" style="stop-color:#D3BD94"/>
	</linearGradient>
	<ellipse fill="url(#SVGID_12_)" stroke="#000000" cx="46.073" cy="152.188" rx="9.158" ry="8.525"/>
	<linearGradient id="SVGID_13_" gradientUnits="userSpaceOnUse" x1="37.7671" y1="150.1367" x2="55.1777" y2="150.1367">
		<stop  offset="0" style="stop-color:#F7E7C3"/>
		<stop  offset="0.4888" style="stop-color:#F4E0AD"/>
		<stop  offset="1" style="stop-color:#D3BD94"/>
	</linearGradient>
	<ellipse fill="url(#SVGID_13_)" cx="46.472" cy="150.137" rx="8.705" ry="8.321"/>
	<g>
		<polygon fill="#C69C6D" stroke="#000000" points="88.124,158.153 89.077,160.747 90.805,158.614 		"/>
		<polygon fill="#C69C6D" stroke="#000000" points="94.847,158.463 97.268,159.794 97.173,157.051 		"/>
		<polygon fill="#C69C6D" stroke="#000000" points="100.579,153.544 103.264,152.889 101.339,150.931 		"/>
	</g>
	<linearGradient id="SVGID_14_" gradientUnits="userSpaceOnUse" x1="83.7764" y1="150.3906" x2="101.5059" y2="150.3906">
		<stop  offset="0" style="stop-color:#F7E7C3"/>
		<stop  offset="0.4888" style="stop-color:#F4E0AD"/>
		<stop  offset="1" style="stop-color:#D3BD94"/>
	</linearGradient>
	<path fill="url(#SVGID_14_)" stroke="#000000" d="M99.297,144.101c3.233,3.421,2.875,9.012-0.802,12.485
		c-3.676,3.475-9.277,3.517-12.511,0.096c-3.233-3.422-2.874-9.012,0.802-12.485C90.463,140.722,96.063,140.68,99.297,144.101z"/>
	<linearGradient id="SVGID_15_" gradientUnits="userSpaceOnUse" x1="82.3799" y1="148.6865" x2="99.791" y2="148.6865">
		<stop  offset="0" style="stop-color:#F7E7C3"/>
		<stop  offset="0.4888" style="stop-color:#F4E0AD"/>
		<stop  offset="1" style="stop-color:#D3BD94"/>
	</linearGradient>
	<ellipse fill="url(#SVGID_15_)" cx="91.085" cy="148.686" rx="8.706" ry="8.322"/>
	<linearGradient id="SVGID_16_" gradientUnits="userSpaceOnUse" x1="65.7046" y1="75.7637" x2="65.7046" y2="136.7007">
		<stop  offset="0" style="stop-color:#F7E7C3"/>
		<stop  offset="0.4888" style="stop-color:#F4E0AD"/>
		<stop  offset="1" style="stop-color:#D3BD94"/>
	</linearGradient>
	<path fill="url(#SVGID_16_)" stroke="#000000" d="M105.966,113.667c0,22.234-9.404,40.381-40.261,40.261
		c-31.782-0.125-40.261-18.026-40.261-40.261c0-22.236,18.026-40.262,40.261-40.262C87.94,73.405,105.966,91.431,105.966,113.667z"
		/>
	<linearGradient id="SVGID_17_" gradientUnits="userSpaceOnUse" x1="65.6943" y1="76.2476" x2="65.6943" y2="135.7239">
		<stop  offset="0" style="stop-color:#F7E7C3"/>
		<stop  offset="0.4888" style="stop-color:#F4E0AD"/>
		<stop  offset="1" style="stop-color:#D3BD94"/>
	</linearGradient>
	<path opacity="0.6" fill="url(#SVGID_17_)" d="M105.937,113.242c0,21.702-9.4,39.414-40.242,39.296
		c-31.767-0.121-40.242-17.594-40.242-39.296c0-21.703,18.018-39.297,40.242-39.297C87.92,73.945,105.937,91.539,105.937,113.242z"
		/>
	<linearGradient id="SVGID_18_" gradientUnits="userSpaceOnUse" x1="66.2202" y1="76.0913" x2="66.2202" y2="131.448">
		<stop  offset="0" style="stop-color:#F7E7C3"/>
		<stop  offset="0.4888" style="stop-color:#F4E0AD"/>
		<stop  offset="1" style="stop-color:#D3BD94"/>
	</linearGradient>
	<path opacity="0.4" fill="url(#SVGID_18_)" d="M104.648,110.523c0,20.2-8.976,36.684-38.428,36.574
		c-30.336-0.113-38.429-16.374-38.429-36.574c0-20.199,17.206-36.575,38.429-36.575C87.444,73.949,104.648,90.324,104.648,110.523z"
		/>
	<circle cx="58.118" cy="105.021" r="2.297"/>
	<circle cx="73.473" cy="105.021" r="2.297"/>
	<g>
		<g>
			<path d="M61,109.937c-2.046,1.431-3.633,3.927-1.642,6.123c2.122,2.342,5.582,0.194,7.142-1.597
				c-0.589-0.076-1.178-0.152-1.767-0.229c1.468,2.409,4.264,3.722,6.785,1.938c2.685-1.898,1.877-5.441-0.946-6.591
				c-1.344-0.547-1.923,1.63-0.598,2.17c1.518,0.618,1.036,2.342-0.256,2.879c-1.332,0.555-2.403-0.481-3.043-1.531
				c-0.356-0.586-1.278-0.788-1.767-0.229c-0.836,0.96-2.256,2.409-3.689,1.777c-1.491-0.657,0.251-2.304,0.917-2.769
				C63.316,111.055,62.193,109.104,61,109.937L61,109.937z"/>
		</g>
	</g>
	<g>
		<g>
			<g>
				<path d="M48.776,108.011c-0.873-0.849-1.674-1.766-2.722-2.41c-0.697-0.429-1.646-0.155-2.052,0.538
					c-0.42,0.717-0.157,1.624,0.539,2.052c0.725,0.446,1.408,1.254,2.115,1.941c0.586,0.569,1.537,0.584,2.121,0
					C49.348,109.561,49.362,108.58,48.776,108.011L48.776,108.011z"/>
			</g>
		</g>
		<g>
			<g>
				<path d="M46.833,111.252c-0.102,0.04-0.21,0.06-0.318,0.08c-0.106,0.021-0.213,0.035-0.32,0.051
					c0.383-0.056-0.071,0.004-0.124,0.009c-0.497,0.053-1,0.079-1.499,0.049c-0.817-0.051-1.5,0.721-1.5,1.5
					c0,0.855,0.684,1.45,1.5,1.5c0.546,0.033,1.093-0.006,1.637-0.063c0.449-0.048,0.991-0.064,1.422-0.233
					c0.76-0.298,1.282-0.994,1.047-1.845C48.478,111.573,47.595,110.953,46.833,111.252L46.833,111.252z"/>
			</g>
		</g>
		<g>
			<g>
				<path d="M47.146,116.053c0.065-0.085,0.041-0.056-0.071,0.089c-0.068,0.087-0.138,0.173-0.208,0.258
					c-0.138,0.169-0.283,0.333-0.431,0.494c-0.146,0.159-0.301,0.309-0.46,0.455c-0.241,0.223-0.191,0.168-0.47,0.342
					c-0.692,0.431-0.96,1.332-0.538,2.052c0.405,0.69,1.358,0.971,2.053,0.538c1.124-0.699,1.917-1.68,2.715-2.714
					c0.501-0.648,0.099-1.679-0.539-2.052C48.425,115.062,47.645,115.406,47.146,116.053L47.146,116.053z"/>
			</g>
		</g>
	</g>
	<g>
		<g>
			<g>
				<path d="M81.475,116.66c0.873,0.849,1.675,1.767,2.723,2.411c0.696,0.429,1.646,0.155,2.052-0.538
					c0.421-0.717,0.157-1.624-0.538-2.052c-0.726-0.447-1.408-1.255-2.115-1.942c-0.586-0.569-1.537-0.584-2.121,0
					C80.902,115.11,80.889,116.091,81.475,116.66L81.475,116.66z"/>
			</g>
		</g>
		<g>
			<g>
				<path d="M83.418,113.419c0.103-0.04,0.211-0.06,0.318-0.08c0.105-0.021,0.213-0.035,0.32-0.051
					c-0.384,0.056,0.071-0.004,0.123-0.009c0.497-0.052,1-0.079,1.499-0.048c0.816,0.051,1.5-0.721,1.5-1.5
					c0-0.856-0.685-1.449-1.5-1.5c-0.546-0.034-1.093,0.005-1.637,0.062c-0.449,0.048-0.991,0.064-1.421,0.233
					c-0.761,0.299-1.282,0.993-1.048,1.845C81.772,113.097,82.656,113.719,83.418,113.419L83.418,113.419z"/>
			</g>
		</g>
		<g>
			<g>
				<path d="M83.105,108.618c-0.064,0.085-0.041,0.056,0.071-0.089c0.068-0.086,0.138-0.172,0.208-0.257
					c0.138-0.17,0.282-0.333,0.43-0.494c0.146-0.16,0.302-0.31,0.46-0.455c0.241-0.223,0.19-0.169,0.469-0.343
					c0.692-0.432,0.961-1.331,0.538-2.052c-0.403-0.69-1.357-0.972-2.052-0.539c-1.123,0.701-1.917,1.68-2.714,2.714
					c-0.501,0.649-0.1,1.679,0.538,2.052C81.827,109.609,82.607,109.265,83.105,108.618L83.105,108.618z"/>
			</g>
		</g>
	</g>
	<g>
		<line fill="#FFFFFF" x1="54.97" y1="97.828" x2="60.048" y2="100.488"/>
		<g>
			<path d="M54.213,99.124c1.693,0.886,3.386,1.773,5.078,2.66c1.712,0.896,3.229-1.693,1.515-2.591
				c-1.693-0.886-3.386-1.773-5.078-2.66C54.016,95.636,52.499,98.226,54.213,99.124L54.213,99.124z"/>
		</g>
	</g>
	<g>
		<line fill="#FFFFFF" x1="77.217" y1="97.103" x2="70.446" y2="99.763"/>
		<g>
			<path d="M76.818,95.656c-2.257,0.887-4.514,1.773-6.771,2.66c-1.779,0.699-1.006,3.601,0.797,2.893
				c2.257-0.887,4.514-1.773,6.771-2.66C79.395,97.85,78.621,94.948,76.818,95.656L76.818,95.656z"/>
		</g>
	</g>
	<g>
		<g>
			<path d="M53.235,111.609c0.453-0.091,0.731-0.1,1.092-0.44c0.181-0.171,0.28-0.489,0.193-0.729
				c-0.124-0.341-0.286-0.653-0.664-0.757c-0.206-0.057-0.439-0.017-0.623,0.091c-0.07,0.05-0.137,0.104-0.201,0.159
				c-0.087,0.081-0.072,0.077,0.046-0.012c-0.938,0.237-0.54,1.684,0.398,1.447c0.124-0.031,0.236-0.078,0.345-0.145
				c0.076-0.054,0.148-0.111,0.216-0.175c0.124-0.114,0.063-0.088-0.181,0.08c-0.192-0.025-0.385-0.051-0.578-0.076
				c-0.068-0.071-0.137-0.143-0.205-0.215c0.064-0.243,0.128-0.486,0.193-0.729c0.009-0.009,0.253-0.017,0.009-0.009
				c-0.147,0.005-0.295,0.034-0.439,0.063C51.888,110.352,52.291,111.797,53.235,111.609L53.235,111.609z"/>
		</g>
	</g>
	<g>
		<g>
			<path d="M52.025,114.027c0.453-0.09,0.732-0.101,1.092-0.441c0.181-0.172,0.281-0.489,0.193-0.729
				c-0.124-0.34-0.286-0.652-0.663-0.756c-0.207-0.057-0.439-0.017-0.624,0.091c-0.069,0.051-0.136,0.104-0.201,0.159
				c-0.087,0.081-0.072,0.076,0.046-0.013c-0.938,0.234-0.54,1.681,0.398,1.447c0.124-0.031,0.236-0.078,0.345-0.145
				c0.076-0.053,0.147-0.11,0.216-0.174c0.124-0.114,0.063-0.087-0.181,0.08c-0.193-0.025-0.385-0.051-0.578-0.075
				c-0.068-0.072-0.137-0.145-0.205-0.217c0.064-0.243,0.128-0.486,0.193-0.729c0.008-0.008,0.255-0.016,0.009-0.008
				c-0.147,0.005-0.295,0.034-0.439,0.063C50.678,112.768,51.081,114.213,52.025,114.027L52.025,114.027z"/>
		</g>
	</g>
	<g>
		<g>
			<path d="M54.927,114.511c0.453-0.09,0.731-0.101,1.092-0.44c0.181-0.171,0.28-0.489,0.193-0.729
				c-0.124-0.34-0.286-0.652-0.663-0.757c-0.207-0.057-0.439-0.016-0.623,0.092c-0.07,0.05-0.137,0.103-0.201,0.159
				c-0.087,0.08-0.072,0.076,0.046-0.013c-0.938,0.234-0.54,1.681,0.398,1.447c0.124-0.031,0.236-0.078,0.345-0.145
				c0.076-0.053,0.148-0.111,0.216-0.174c0.124-0.114,0.063-0.088-0.181,0.08c-0.193-0.025-0.385-0.051-0.578-0.076
				c-0.068-0.072-0.137-0.144-0.205-0.216c0.064-0.243,0.128-0.486,0.193-0.729c0.009-0.009,0.253-0.017,0.009-0.009
				c-0.147,0.005-0.295,0.034-0.439,0.063C53.58,113.251,53.983,114.697,54.927,114.511L54.927,114.511z"/>
		</g>
	</g>
	<g>
		<g>
			<path d="M76.69,111.126c0.453-0.09,0.731-0.1,1.092-0.44c0.181-0.171,0.28-0.489,0.193-0.729
				c-0.124-0.34-0.287-0.653-0.664-0.757c-0.206-0.057-0.439-0.017-0.623,0.091c-0.069,0.05-0.137,0.104-0.201,0.159
				c-0.087,0.08-0.071,0.076,0.047-0.013c-0.938,0.234-0.54,1.682,0.398,1.447c0.123-0.031,0.235-0.078,0.345-0.145
				c0.075-0.053,0.147-0.111,0.216-0.174c0.123-0.114,0.063-0.088-0.182,0.08c-0.192-0.025-0.386-0.051-0.578-0.076
				c-0.068-0.071-0.137-0.143-0.205-0.215c0.064-0.243,0.129-0.486,0.193-0.729c0.009-0.009,0.254-0.017,0.009-0.009
				c-0.147,0.005-0.294,0.034-0.438,0.063C75.344,109.866,75.746,111.313,76.69,111.126L76.69,111.126z"/>
		</g>
	</g>
	<g>
		<g>
			<path d="M75.688,113.065c0.453-0.09,0.731-0.101,1.092-0.44c0.182-0.171,0.28-0.489,0.193-0.729
				c-0.125-0.34-0.287-0.652-0.664-0.757c-0.206-0.057-0.439-0.016-0.623,0.092c-0.07,0.05-0.137,0.103-0.201,0.159
				c-0.088,0.08-0.072,0.076,0.046-0.013c-0.938,0.234-0.54,1.681,0.398,1.447c0.124-0.031,0.236-0.078,0.345-0.145
				c0.076-0.053,0.148-0.111,0.216-0.174c0.124-0.114,0.063-0.088-0.181,0.08c-0.192-0.025-0.386-0.051-0.578-0.076
				c-0.068-0.072-0.137-0.144-0.205-0.216c0.064-0.243,0.129-0.486,0.193-0.729c0.009-0.009,0.253-0.017,0.009-0.009
				c-0.147,0.005-0.294,0.034-0.438,0.063C74.341,111.806,74.743,113.252,75.688,113.065L75.688,113.065z"/>
		</g>
	</g>
	<g>
		<g>
			<path d="M78.348,113.065c0.453-0.09,0.731-0.101,1.092-0.44c0.182-0.171,0.28-0.489,0.193-0.729
				c-0.124-0.341-0.286-0.652-0.664-0.757c-0.206-0.057-0.439-0.016-0.623,0.092c-0.069,0.05-0.137,0.103-0.201,0.159
				c-0.087,0.08-0.072,0.076,0.046-0.013c-0.938,0.234-0.54,1.681,0.398,1.447c0.124-0.031,0.236-0.078,0.345-0.145
				c0.076-0.053,0.148-0.111,0.217-0.174c0.123-0.114,0.063-0.088-0.182,0.08c-0.192-0.025-0.385-0.051-0.577-0.076
				c-0.068-0.072-0.138-0.144-0.206-0.216c0.064-0.243,0.129-0.486,0.193-0.729c0.009-0.009,0.253-0.017,0.009-0.009
				c-0.147,0.005-0.294,0.034-0.438,0.063C77.001,111.806,77.403,113.252,78.348,113.065L78.348,113.065z"/>
		</g>
	</g>
	<g>
		<linearGradient id="SVGID_19_" gradientUnits="userSpaceOnUse" x1="129.2773" y1="132.7734" x2="138.8887" y2="132.7734">
			<stop  offset="0" style="stop-color:#6C5034"/>
			<stop  offset="1" style="stop-color:#2E1000"/>
		</linearGradient>
		<path fill="url(#SVGID_19_)" d="M129.277,132.531c2.357-2.176,6.711-1.27,9.611-2.902c-1.45,4.535-5.44,9.068-9.43,4.172
			L129.277,132.531z"/>
		<g>
			<path d="M130.338,133.592c1.294-1.062,3.18-1.164,4.771-1.385c1.596-0.222,3.093-0.552,4.537-1.283
				c-0.734-0.564-1.469-1.129-2.203-1.693c-0.646,1.885-1.754,4.308-3.757,5.077c-1.057,0.405-1.973-0.342-2.688-1.024
				c-0.194-0.187-0.218-0.756-0.274-1.15c-0.273-1.909-3.163-1.094-2.893,0.797c0.389,2.715,3.015,4.755,5.818,4.433
				c3.576-0.41,5.648-4.306,6.686-7.335c0.456-1.333-1.114-2.245-2.203-1.693c-3.214,1.625-6.979,0.727-9.915,3.137
				C126.721,132.699,128.855,134.809,130.338,133.592z"/>
		</g>
	</g>
	<g opacity="0.2">
		<linearGradient id="SVGID_20_" gradientUnits="userSpaceOnUse" x1="130.3857" y1="131.9082" x2="139.9971" y2="131.9082">
			<stop  offset="0" style="stop-color:#6C5034"/>
			<stop  offset="1" style="stop-color:#2E1000"/>
		</linearGradient>
		<path fill="url(#SVGID_20_)" d="M130.386,132.428c2.357-1.268,6.709-1.848,9.611-2.799c-1.451,2.641-5.44,6.389-9.431,3.538
			L130.386,132.428z"/>
	</g>
</g>
</svg>
