<?xml version="1.0" encoding="utf-8"?>
<!-- Generator: Adobe Illustrator 16.0.0, SVG Export Plug-In . SVG Version: 6.00 Build 0)  -->
<!DOCTYPE svg PUBLIC "-//W3C//DTD SVG 1.1//EN" "http://www.w3.org/Graphics/SVG/1.1/DTD/svg11.dtd">
<svg version="1.1" id="Layer_1" xmlns="http://www.w3.org/2000/svg" xmlns:xlink="http://www.w3.org/1999/xlink" x="0px" y="0px"
	 width="150px" height="225px" viewBox="0 0 150 225" enable-background="new 0 0 150 225" xml:space="preserve">
<path fill="#FFFFFF" stroke="#000000" stroke-miterlimit="10" d="M148.189,210.018c0,6.478-5.25,11.728-11.728,11.728H13.35
	c-6.476,0-11.725-5.25-11.725-11.728V13.619c0-6.476,5.25-11.725,11.725-11.725h123.115c6.477,0,11.727,5.25,11.727,11.725v196.398
	H148.189L148.189,210.018z"/>
<g>
	<g>
		<path fill="#F6B3CE" d="M130.241,109.845c0-14.913-5.703-28.495-15.043-38.684c1.852-0.848,4.085-2.575,4.117-5.983
			c2.083,1.721,2.714,7.433,2.714,7.433s5.015-16.517-3.439-16.854c-5.755-0.23-12.58,2.771-16.473,4.785
			c-8.538-5.06-18.503-7.967-29.147-7.967c-12.708,0-24.448,4.142-33.947,11.145c-3.996-1.957-10.071-4.387-15.27-4.18
			c-8.454,0.339-3.44,16.854-3.44,16.854s0.347-3.125,1.367-5.447c0.308,3.356,2.854,4.923,4.676,5.62
			c-6.708,9.378-10.658,20.866-10.658,33.278c0,17.916,8.228,33.907,21.107,44.407c-1.721,1.32-2.833,3.392-2.833,5.728
			c0,3.99,3.233,7.225,7.222,7.225c3.461,0,6.349-2.437,7.055-5.683c7.485,3.587,15.867,5.595,24.72,5.595
			c7.227,0,14.138-1.34,20.504-3.784c1.262,2.11,3.561,3.525,6.197,3.525c3.989,0,7.223-3.231,7.223-7.221
			c0-1.124-0.263-2.176-0.718-3.123C120.742,146.129,130.241,129.098,130.241,109.845z"/>
		<g>
			<path d="M136.241,109.845c-0.228-16.092-6.1-30.936-16.801-42.927c-0.404,3.141-0.81,6.282-1.214,9.423
				c4.538-2.353,6.575-6.213,7.089-11.164c-3.414,1.414-6.828,2.829-10.242,4.243c0.633,0.681,1.244,5.55,0.956,3.19
				c0.786,6.437,9.729,8.511,11.786,1.595c1.694-5.701,2.951-13.202,0.06-18.702c-5.63-10.706-20.86-4.149-28.786-0.144
				c2.019,0,4.038,0,6.057,0C83.456,42.926,56.4,43.931,35.995,58.539c2.019,0,4.038,0,6.057,0
				c-7.83-3.722-22.158-9.57-27.583,0.749c-2.892,5.5-1.635,13.001,0.059,18.702c2.064,6.945,10.961,4.812,11.786-1.595
				c-0.075,0.778,0.002,0.467,0.231-0.932c0.218-1.001,0.525-1.975,0.922-2.92c-3.857,0-7.714,0-11.571,0
				c0.815,4.169,3.533,7.511,7.433,9.206c-0.717-2.736-1.435-5.473-2.152-8.209c-18.618,26.797-13.62,64.034,11.388,84.956
				c0-2.828,0-5.656,0-8.484c-6.928,6.369-5.367,16.21,1.958,21.389c7.502,5.305,17.154-0.652,19.515-8.282
				c-2.938,1.195-5.876,2.391-8.814,3.586c15.806,7.294,33.411,8.445,49.847,2.416c-2.259-0.92-4.517-1.839-6.775-2.758
				c3.911,5.444,10.49,8.28,16.927,5.227c6.338-3.008,9.058-10.13,6.742-16.668c-0.92,2.259-1.839,4.517-2.758,6.775
				C126.011,149.391,135.963,130.762,136.241,109.845c0.104-7.742-11.897-7.732-12,0c-0.218,16.382-7.804,31.758-21.094,41.488
				c-2.076,1.52-3.714,4.074-2.758,6.775c0.412,1.162-0.179,4.361-1.735,2.195c-1.485-2.067-4.106-3.736-6.775-2.758
				c-13.294,4.877-27.654,4.769-40.601-1.205c-3.56-1.643-7.589-0.373-8.814,3.586c-0.733,2.369-3.737,0.702-1.416-1.433
				c2.253-2.071,2.438-6.445,0-8.484c-21.174-17.716-25.309-47.677-9.512-70.415c1.709-2.459,0.692-6.973-2.152-8.209
				c-1.429-0.621-1.633-0.574-1.918-2.035c-1.239-6.333-9.711-5.078-11.571,0c-0.85,2.319-1.268,4.602-1.582,7.042
				c3.929-0.532,7.857-1.063,11.786-1.595c-0.738-2.483-1.188-5.008-1.261-7.598c-0.016-0.544,0.01-1.292,0.109-1.811
				c0.308-1.611,0.004,0.014-1.194,0.15c4.068-0.46,8.668,1.662,12.242,3.36c1.84,0.875,4.25,1.294,6.057,0
				c16.487-11.803,37.6-13.64,55.601-4.001c4.919,2.633,7.461,0.539,12.163-1.298c1.92-0.75,3.905-1.26,5.915-1.691
				c0.948-0.146,1.901-0.196,2.859-0.153c-0.601,0.003-1.199-0.378-1.406-0.916c1.146,2.971-0.063,7.228-0.94,10.175
				c3.929,0.532,7.857,1.063,11.786,1.595c-0.521-4.266-1.457-8.434-4.472-11.676c-3.894-4.189-9.742-0.583-10.242,4.243
				c-0.038,0.368-0.917,0.684-1.146,0.802c-3.604,1.868-3.666,6.676-1.214,9.423C119.52,85,124.06,97.01,124.241,109.845
				C124.351,117.576,136.351,117.587,136.241,109.845z"/>
		</g>
	</g>
	<g>
		<g>
			<path d="M119.411,147.254c1.7-1.247,3.583-2.063,5.697-2.286c0.419,0.02,0.838,0.039,1.257,0.059
				c1.921,0.722,2.212,1.754,0.872,3.095c0.388-0.624,0.774-1.249,1.161-1.874c1.449-2,2.979-1.449,4.591,1.653
				c0.605-0.078,1.212-0.156,1.817-0.234c-2.411-1.117,1.239-3.779,2.183-4.034c0.924-0.249,3.398-0.298,2.922,1.243
				c-0.574,1.853,2.322,2.639,2.893,0.797c1.314-4.242-3.358-5.477-6.612-4.933c-3.775,0.631-7.485,7.393-2.898,9.518
				c0.639,0.295,1.284,0.26,1.817-0.235c3.543-3.288-0.884-9.586-5.29-8.195c-4.032,1.271-7.863,6.731-3.899,10.081
				c3.754,3.174,6.428-4.669,4.558-7.355c-2.979-4.279-9.013-2.507-12.581,0.112C116.355,145.795,117.849,148.4,119.411,147.254
				L119.411,147.254z"/>
		</g>
	</g>
	<path fill="#F6B3CE" stroke="#000000" d="M48.418,159.979c0,3.99-3.233,7.225-7.224,7.225c-3.989,0-7.222-3.234-7.222-7.225
		c0-3.986,3.233-7.223,7.222-7.223C45.185,152.757,48.418,155.993,48.418,159.979z"/>
	<circle fill="#F6B3CE" stroke="#000000" cx="99.67" cy="159.637" r="7.223"/>
	<circle opacity="0.7" fill="#F6B3CE" cx="43.001" cy="157.658" r="7.224"/>
	<circle opacity="0.7" fill="#F6B3CE" cx="98.725" cy="157.658" r="7.224"/>
	<path fill="#F06B8D" stroke="#000000" d="M107.136,67.853c0,0,12.076-8.318,12.729-1.663c0.654,6.656-6.527,7.655-6.527,7.655
		L107.136,67.853z"/>
	<path fill="#F6B3CE" d="M118.59,55.756c8.454,0.337,3.439,16.854,3.439,16.854s-0.839-7.618-3.784-7.912
		c-3.44-0.343-7.567,4.816-7.567,4.816l-11.695-7.223C98.982,62.292,109.99,55.413,118.59,55.756z"/>
	<path opacity="0.4" fill="#F6B3CE" d="M118.59,57.768c8.454,0.339,3.439,16.855,3.439,16.855s-0.839-7.617-3.784-7.912
		c-3.44-0.344-7.567,4.816-7.567,4.816l-11.695-7.224C98.982,64.304,109.99,57.424,118.59,57.768z"/>
	<path fill="#F06B8D" stroke="#000000" d="M34.417,71.091c0,0-12.077-8.318-12.73-1.664c-0.652,6.656,6.528,7.655,6.528,7.655
		L34.417,71.091z"/>
	<path fill="#F6B3CE" d="M23.753,59.54c-8.454,0.339-3.44,16.854-3.44,16.854s0.84-7.617,3.785-7.911
		c3.439-0.345,7.567,4.815,7.567,4.815l11.695-7.224C43.36,66.075,32.352,59.195,23.753,59.54z"/>
	<path opacity="0.4" fill="#F6B3CE" d="M23.753,61.585c-8.454,0.339-3.44,16.854-3.44,16.854s0.84-7.617,3.785-7.912
		c3.439-0.342,7.567,4.817,7.567,4.817l11.695-7.224C43.36,68.122,32.352,61.242,23.753,61.585z"/>
	<radialGradient id="SVGID_1_" cx="72.9697" cy="109.8452" r="57.2712" gradientUnits="userSpaceOnUse">
		<stop  offset="0.0056" style="stop-color:#FCE6F0"/>
		<stop  offset="0.4494" style="stop-color:#F9CCDF"/>
		<stop  offset="1" style="stop-color:#F7A5C8"/>
	</radialGradient>
	<circle fill="url(#SVGID_1_)" stroke="#000000" cx="72.97" cy="109.846" r="57.271"/>
	
		<radialGradient id="SVGID_2_" cx="77.9443" cy="121.2891" r="57.2725" gradientTransform="matrix(0.9707 0 0 0.9102 -2.4873 -1.0504)" gradientUnits="userSpaceOnUse">
		<stop  offset="0.0056" style="stop-color:#FCE6F0"/>
		<stop  offset="0.4494" style="stop-color:#F9CCDF"/>
		<stop  offset="1" style="stop-color:#F7A5C8"/>
	</radialGradient>
	<ellipse opacity="0.2" fill="url(#SVGID_2_)" cx="73.173" cy="109.347" rx="55.595" ry="52.13"/>
	<ellipse opacity="0.1" fill="#FFFFFF" cx="72.915" cy="102.081" rx="54.821" ry="48.217"/>
	<circle cx="61.146" cy="97.549" r="3.268"/>
	<circle cx="82.988" cy="97.549" r="3.268"/>
	
		<radialGradient id="SVGID_3_" cx="78.3125" cy="148.3174" r="12.4342" gradientTransform="matrix(0.979 0 0 0.7133 -4.1116 2.8464)" gradientUnits="userSpaceOnUse">
		<stop  offset="0.0056" style="stop-color:#FCE6F0"/>
		<stop  offset="0.4494" style="stop-color:#F9CCDF"/>
		<stop  offset="1" style="stop-color:#F7A5C8"/>
	</radialGradient>
	<ellipse opacity="0.3" fill="url(#SVGID_3_)" cx="72.556" cy="108.641" rx="13.903" ry="7.396"/>
	<ellipse fill="#FFFFFF" cx="72.282" cy="108.641" rx="12.211" ry="7.396"/>
	<circle cx="68.067" cy="108.004" r="1.376"/>
	<circle cx="75.979" cy="108.004" r="1.376"/>
</g>
</svg>
