<?xml version="1.0" encoding="utf-8"?>
<!-- Generator: Adobe Illustrator 16.0.0, SVG Export Plug-In . SVG Version: 6.00 Build 0)  -->
<!DOCTYPE svg PUBLIC "-//W3C//DTD SVG 1.1//EN" "http://www.w3.org/Graphics/SVG/1.1/DTD/svg11.dtd">
<svg version="1.1" id="Layer_1" xmlns="http://www.w3.org/2000/svg" xmlns:xlink="http://www.w3.org/1999/xlink" x="0px" y="0px"
	 width="150px" height="225px" viewBox="0 0 150 225" enable-background="new 0 0 150 225" xml:space="preserve">
<path fill="#FFFFFF" stroke="#000000" stroke-miterlimit="10" d="M148.189,210.018c0,6.478-5.25,11.728-11.728,11.728H13.35
	c-6.476,0-11.725-5.25-11.725-11.728V13.619c0-6.476,5.25-11.725,11.725-11.725h123.115c6.477,0,11.727,5.25,11.727,11.725v196.398
	H148.189L148.189,210.018z"/>
<g>
	<g>
		<path fill="#CCCCCC" d="M128.933,108.044c-3.175,2.53-0.992,3.938-1.152,7.071c-0.327,6.393-10.957,0.975-10.689,8.875
			c0.108,3.201,2.109,4.615,4.555,6.422c2.264,1.67,2.821,2.436,1.137,5.158c-1.098,1.777-3.151,3.625-4.972,4.658
			c-4.008,2.277-7.107-0.166-10.126-1.969c4.695-8.352,6.569-18.639,6.569-29.742c0-27.874-22.596-50.468-50.47-50.468
			c-27.873,0-50.469,22.595-50.469,50.468c0,17.477,4.179,32.813,17.114,41.863c-1.227,1.061-2,2.568-2,4.248
			c0,3.205,2.789,5.799,6.228,5.799c3.094,0,5.653-2.1,6.139-4.852c6.281,2.17,13.867,3.377,22.989,3.412
			c11.603,0.045,20.782-1.973,27.953-5.566c0.538,2.693,3.071,4.732,6.119,4.732c3.439,0,6.229-2.596,6.229-5.797
			c0-2.244-1.371-4.186-3.374-5.15c2.299-2.154,4.262-4.559,5.918-7.178c1.431,1.156,2.853,2.352,4.323,2.766
			c4.247,1.197,7.543,0.131,10.962-2.387c3.087-2.271,6.813-6.088,3.769-9.9c-1.431-1.793-4.66-2.5-5.466-4.65
			c-0.75-2.002,1.028-3.41,2.558-4.5c3.783-2.693,7.024-1.994,7.501-7.383c0.454-5.124,2.012-6,6.349-8.361
			C134.606,104.751,130.503,106.794,128.933,108.044z"/>
		<g>
			<path fill="#010101" d="M127.004,106.115c-2.1,1.825-2.82,3.899-2.294,6.611c0.155,0.803,0.482,1.633,0.332,2.465
				c-0.074,0.422-0.199,0.428-0.429,0.514c-3.433,1.314-6.886,0.611-9.264,4.047c-1.305,1.885-1.156,4.713-0.573,6.797
				c0.727,2.59,2.927,4.301,4.976,5.836c0.464,0.35,0.907,0.689,1.333,1.084c-0.212-0.197,0.173-0.836-0.283,0.082
				c-0.719,1.449-1.977,2.658-3.258,3.611c-3.144,2.338-5.604,0.49-8.482-1.258c0.327,1.244,0.653,2.488,0.979,3.732
				c5.923-10.76,7.821-24.02,6.692-36.164c-0.946-10.169-4.89-19.912-11.218-27.919C92.57,59.173,70.948,51.986,50.724,56.936
				c-18.985,4.646-34.047,20.238-38.667,39.113c-2.501,10.223-1.818,21.566,0.632,31.732c2.425,10.063,7.896,18.918,16.362,24.955
				c-0.184-1.428-0.369-2.857-0.552-4.285c-4.275,4.137-3.315,10.732,1.812,13.631c5.085,2.875,11.808-0.189,13.115-5.783
				c-1.119,0.637-2.237,1.271-3.356,1.906c8.909,3.012,18.5,3.773,27.851,3.434c8.688-0.313,17.361-2.006,25.192-5.863
				c-1.336-0.543-2.671-1.086-4.007-1.631c1.54,6.008,8.397,8.32,13.609,5.373c5.909-3.34,4.907-11.641-0.628-14.668
				c0.184,1.43,0.369,2.857,0.553,4.285c2.423-2.32,4.522-4.914,6.344-7.73c-1.428,0.184-2.856,0.369-4.284,0.553
				c2.87,2.322,5.359,3.756,9.105,4.045c3.172,0.242,6.301-1.102,8.883-2.813c2.57-1.701,5.229-4.047,6.322-7.01
				c1.214-3.285,0.055-6.711-2.725-8.789c-1.04-0.779-2.266-1.326-3.247-2.176c-0.727-0.627,1.644-1.863,2.128-2.162
				c1.97-1.211,4.218-1.773,5.813-3.553c1.954-2.174,1.712-4.953,2.396-7.6c0.54-2.094,2.909-2.997,4.624-3.933
				c2.162-1.179,1.512-4.295-0.652-4.986c-3.242-1.038-7.221,0.771-9.793,2.706c-2.774,2.087-0.062,6.828,2.754,4.711
				c1.337-1.004,3.84-2.715,5.59-2.156c-0.219-1.662-0.435-3.324-0.652-4.986c-1.888,1.03-3.889,2.063-5.309,3.724
				c-1.56,1.822-2.021,4.033-2.325,6.348c-0.33,2.506-1.082,3.01-3.286,4.033c-2.421,1.125-4.623,2.604-6.212,4.775
				c-1.733,2.371-0.503,5.58,1.482,7.295c1.608,1.393,5.489,2.475,4.146,5.225c-1.193,2.443-4.317,4.52-6.789,5.434
				c-3.19,1.182-5.908,0.02-8.396-1.992c-1.396-1.129-3.258-1.035-4.284,0.553c-1.578,2.439-3.394,4.617-5.491,6.627
				c-1.247,1.195-0.975,3.449,0.553,4.283c2.12,1.16,2.83,3.713,0.627,5.246c-2.117,1.473-4.98,0.283-5.595-2.113
				c-0.462-1.803-2.465-2.389-4.007-1.631c-6.973,3.436-14.73,4.77-22.439,5.121c-8.88,0.404-17.949-0.383-26.4-3.24
				c-1.37-0.463-3.032,0.518-3.357,1.906c-1.307,5.598-10.066,1.578-5.807-2.541c1.353-1.309,0.841-3.291-0.552-4.285
				c-8.925-6.365-13.192-16.387-14.902-26.922c-1.707-10.515-1.245-21.681,3.031-31.542c8.204-18.921,27.857-30.238,48.271-28.594
				c15.597,1.257,29.643,10.828,37.295,24.316c3.904,6.878,5.876,14.714,6.021,22.598c0.184,9.91-1.366,20.234-6.191,29.002
				c-0.727,1.318-0.316,2.947,0.978,3.734c2.725,1.652,5.354,3.291,8.653,3.248c3.536-0.047,6.808-2.748,8.987-5.297
				c1.639-1.918,3.583-5.209,1.955-7.709c-1.473-2.262-4.873-3.242-5.866-5.762c-1.622-4.117,3.797-3.275,6.332-4.246
				c1.971-0.754,3.362-2.152,3.935-4.209c0.36-1.293,0.182-2.648-0.016-3.947c-0.233-1.521-0.691-1.621,0.574-2.723
				C133.523,107.66,129.646,103.818,127.004,106.115z"/>
		</g>
	</g>
	<path fill="#666666" stroke="#010101" d="M100.95,137.389c5.738-3.342,9.952,6.766,16.86,2.84c1.82-1.033,3.874-2.881,4.972-4.658
		c1.685-2.725,1.127-3.488-1.137-5.16c-2.445-1.805-4.445-3.221-4.555-6.422c-0.268-7.898,10.362-2.48,10.689-8.873
		c0.161-3.135-2.022-4.542,1.152-7.071c1.57-1.251,5.674-3.293,7.692-2.431c-4.338,2.36-5.896,3.237-6.349,8.36
		c-0.478,5.389-3.718,4.691-7.503,7.383c-1.528,1.09-3.306,2.498-2.556,4.502c0.805,2.148,4.035,2.855,5.466,4.648
		c3.045,3.814-0.683,7.629-3.769,9.9c-3.42,2.518-6.715,3.584-10.962,2.387c-3.509-0.988-6.754-6.428-10.459-5.178"/>
	
		<radialGradient id="SVGID_1_" cx="265.6582" cy="-213.1289" r="6.0161" gradientTransform="matrix(1 0 0 -1 -231 -58.5)" gradientUnits="userSpaceOnUse">
		<stop  offset="0.0056" style="stop-color:#C6C6C8"/>
		<stop  offset="0.2978" style="stop-color:#BDBEC0"/>
		<stop  offset="0.6573" style="stop-color:#A8AAAD"/>
		<stop  offset="0.9969" style="stop-color:#9B9DA0"/>
		<stop  offset="1" style="stop-color:#9B9DA0"/>
	</radialGradient>
	<ellipse fill="url(#SVGID_1_)" stroke="#010101" cx="34.657" cy="154.629" rx="6.229" ry="5.797"/>
	
		<radialGradient id="SVGID_2_" cx="239.5684" cy="-154.0615" r="4.7023" gradientTransform="matrix(0.9748 0 0 -0.93 -198.5431 10.5122)" gradientUnits="userSpaceOnUse">
		<stop  offset="0.0056" style="stop-color:#C6C6C8"/>
		<stop  offset="0.2978" style="stop-color:#BDBEC0"/>
		<stop  offset="0.6573" style="stop-color:#A8AAAD"/>
		<stop  offset="0.9969" style="stop-color:#9B9DA0"/>
		<stop  offset="1" style="stop-color:#9B9DA0"/>
	</radialGradient>
	<ellipse opacity="0.6" fill="url(#SVGID_2_)" enable-background="new    " cx="34.987" cy="153.789" rx="4.746" ry="4.213"/>
	
		<radialGradient id="SVGID_3_" cx="328.8574" cy="-210.8564" r="6.017" gradientTransform="matrix(1 0 0 -1 -231 -58.5)" gradientUnits="userSpaceOnUse">
		<stop  offset="0.0056" style="stop-color:#C6C6C8"/>
		<stop  offset="0.2978" style="stop-color:#BDBEC0"/>
		<stop  offset="0.6573" style="stop-color:#A8AAAD"/>
		<stop  offset="0.9969" style="stop-color:#9B9DA0"/>
		<stop  offset="1" style="stop-color:#9B9DA0"/>
	</radialGradient>
	<ellipse fill="url(#SVGID_3_)" stroke="#010101" cx="97.857" cy="152.356" rx="6.229" ry="5.798"/>
	
		<radialGradient id="SVGID_4_" cx="190.042" cy="-106.3604" r="4.7027" gradientTransform="matrix(0.8899 0 0 -0.8821 -71.9523 57.5804)" gradientUnits="userSpaceOnUse">
		<stop  offset="0.0056" style="stop-color:#C6C6C8"/>
		<stop  offset="0.2978" style="stop-color:#BDBEC0"/>
		<stop  offset="0.6573" style="stop-color:#A8AAAD"/>
		<stop  offset="0.9969" style="stop-color:#9B9DA0"/>
		<stop  offset="1" style="stop-color:#9B9DA0"/>
	</radialGradient>
	<ellipse opacity="0.6" fill="url(#SVGID_4_)" enable-background="new    " cx="97.166" cy="151.401" rx="4.332" ry="3.997"/>
	
		<radialGradient id="SVGID_5_" cx="293.6123" cy="-160.04" r="43.9037" gradientTransform="matrix(1 0 0 -1 -231 -58.5)" gradientUnits="userSpaceOnUse">
		<stop  offset="0.0056" style="stop-color:#C6C6C8"/>
		<stop  offset="0.2978" style="stop-color:#BDBEC0"/>
		<stop  offset="0.6573" style="stop-color:#A8AAAD"/>
		<stop  offset="0.9969" style="stop-color:#9B9DA0"/>
		<stop  offset="1" style="stop-color:#9B9DA0"/>
	</radialGradient>
	<path fill="url(#SVGID_5_)" stroke="#010101" d="M114.255,108.518c0,27.873-11.789,50.621-50.47,50.469
		c-39.841-0.156-50.469-22.596-50.469-50.469c0-27.874,22.596-50.469,50.469-50.469C91.658,58.048,114.255,80.644,114.255,108.518z"
		/>
	
		<radialGradient id="SVGID_6_" cx="266.6055" cy="-114.7847" r="50.469" gradientTransform="matrix(0.9719 0 0 -0.9234 -195.5367 2.9042)" gradientUnits="userSpaceOnUse">
		<stop  offset="0.0056" style="stop-color:#C6C6C8"/>
		<stop  offset="0.2978" style="stop-color:#BDBEC0"/>
		<stop  offset="0.6573" style="stop-color:#A8AAAD"/>
		<stop  offset="0.9969" style="stop-color:#9B9DA0"/>
		<stop  offset="1" style="stop-color:#9B9DA0"/>
	</radialGradient>
	<path opacity="0.5" fill="url(#SVGID_6_)" enable-background="new    " d="M112.628,108.895c0,25.736-11.458,46.744-49.05,46.603
		c-38.719-0.143-49.05-20.867-49.05-46.603c0-25.738,21.961-46.603,49.05-46.603C90.667,62.292,112.628,83.156,112.628,108.895z"/>
	
		<radialGradient id="SVGID_7_" cx="250.9912" cy="-72.7871" r="50.4712" gradientTransform="matrix(0.9564 0 0 -0.8783 -176.3415 38.4495)" gradientUnits="userSpaceOnUse">
		<stop  offset="0.0056" style="stop-color:#C6C6C8"/>
		<stop  offset="0.2978" style="stop-color:#BDBEC0"/>
		<stop  offset="0.6573" style="stop-color:#A8AAAD"/>
		<stop  offset="0.9969" style="stop-color:#9B9DA0"/>
		<stop  offset="1" style="stop-color:#9B9DA0"/>
	</radialGradient>
	<path fill="url(#SVGID_7_)" d="M111.976,102.377c0,24.482-11.274,44.46-48.269,44.33c-38.104-0.139-48.27-19.848-48.27-44.33
		c0-24.483,21.611-44.329,48.27-44.329S111.976,77.894,111.976,102.377z"/>
	<circle fill="#010101" cx="54.274" cy="97.454" r="2.879"/>
	<circle fill="#010101" cx="73.522" cy="97.583" r="2.88"/>
	<g>
		<g>
			<path fill="#010101" d="M60.364,103.398c-1.572,1.099-2.947,3.03-1.386,4.751c1.723,1.901,4.536-0.048,5.754-1.448
				c-0.267-0.035-0.535-0.069-0.803-0.104c1.198,1.965,3.397,3.031,5.456,1.575c2.055-1.454,1.409-4.171-0.736-5.045
				c-0.611-0.248-0.875,0.742-0.272,0.987c1.87,0.761,1.41,2.908-0.232,3.591c-1.424,0.591-2.643-0.492-3.333-1.624
				c-0.161-0.266-0.581-0.357-0.803-0.103c-0.952,1.091-2.403,2.375-3.96,1.69c-1.803-0.795-0.073-2.755,0.831-3.387
				C61.417,103.906,60.907,103.02,60.364,103.398L60.364,103.398z"/>
		</g>
	</g>
	<g>
		<g>
			<path fill="#010101" d="M28.552,81.509c0.688,1.102,1.757,1.646,2.941,2.094c1.266,0.479,3.057,0.551,4.119,1.44
				c0.396,0.331,1.244,0.171,1.164-0.483c-0.216-1.794-0.751-5.027,1.337-5.919c0.807-0.345,0.111-1.519-0.688-1.178
				c-2.636,1.127-2.292,4.792-2.013,7.098c0.388-0.161,0.775-0.321,1.164-0.482c-1.923-1.61-5.434-0.997-6.846-3.257
				C29.265,80.076,28.083,80.761,28.552,81.509L28.552,81.509z"/>
		</g>
	</g>
	<g>
		<g>
			<path fill="#010101" d="M96.061,81.275c-1.413,2.262-4.924,1.648-6.847,3.258c0.388,0.161,0.775,0.321,1.165,0.482
				c0.278-2.306,0.622-5.972-2.014-7.097c-0.8-0.343-1.495,0.833-0.688,1.178c2.088,0.892,1.555,4.125,1.337,5.919
				c-0.08,0.655,0.768,0.813,1.163,0.482c1.042-0.871,2.862-1.008,4.12-1.439c1.184-0.406,2.266-1.014,2.941-2.095
				C97.705,81.216,96.525,80.531,96.061,81.275L96.061,81.275z"/>
		</g>
	</g>
	<g>
		<g>
			<g>
				<path fill="#010101" d="M37.539,108.617c2.355-0.077,4.313-1.075,6.584-1.595c0.856-0.196,0.493-1.51-0.363-1.314
					c-2.136,0.488-4.007,1.473-6.221,1.544C36.662,107.282,36.659,108.646,37.539,108.617L37.539,108.617z"/>
			</g>
		</g>
		<g>
			<g>
				<path fill="#010101" d="M43.283,110.117c-0.516,1.078-1.56,1.587-2.412,2.364c-0.268,0.244-0.533,0.492-0.799,0.738
					c-0.146,0.135-0.294,0.27-0.443,0.402c-0.08,0.07-0.25,0.188-0.145,0.127c0.229,0,0.459,0,0.689,0
					c-0.002-0.002-0.003-0.004-0.005-0.004c0.082,0.313,0.163,0.621,0.245,0.934c-0.132,0.23,0.162-0.168,0.22-0.23
					c0.603-0.639-0.36-1.605-0.965-0.965c-0.146,0.154-0.326,0.318-0.433,0.508c-0.186,0.322-0.077,0.74,0.245,0.932
					c0.001,0.002,0.003,0.002,0.004,0.002c0.21,0.125,0.479,0.123,0.689,0c0.591-0.342,1.094-0.955,1.592-1.414
					c0.967-0.889,2.105-1.471,2.694-2.705C44.837,110.015,43.662,109.324,43.283,110.117L43.283,110.117z"/>
			</g>
		</g>
		<g>
			<g>
				<path fill="#010101" d="M44.197,101.713c-1.429-1.337-3.572-1.875-4.663-3.582c-0.473-0.738-1.653-0.055-1.178,0.689
					c1.192,1.866,3.335,2.415,4.877,3.856C43.874,103.277,44.841,102.315,44.197,101.713L44.197,101.713z"/>
			</g>
		</g>
	</g>
	<g>
		<g>
			<g>
				<path fill="#010101" d="M91.719,106.526c-2.932-0.13-5.427-1.396-8.257-2.046c-0.856-0.197-1.221,1.118-0.363,1.315
					c2.966,0.682,5.549,1.96,8.62,2.095C92.598,107.929,92.595,106.564,91.719,106.526L91.719,106.526z"/>
			</g>
		</g>
		<g>
			<g>
				<path fill="#010101" d="M82.531,110.578c0.945,2.018,3.305,3.076,4.849,4.564c0.632,0.613,1.598-0.352,0.963-0.963
					c-1.443-1.394-3.754-2.412-4.635-4.29C83.335,109.094,82.159,109.788,82.531,110.578L82.531,110.578z"/>
			</g>
		</g>
		<g>
			<g>
				<path fill="#010101" d="M84.324,100.435c2.15-1.728,4.993-2.393,6.696-4.677c0.526-0.707-0.658-1.386-1.177-0.689
					c-1.56,2.093-4.487,2.798-6.483,4.401C82.674,100.021,83.646,100.979,84.324,100.435L84.324,100.435z"/>
			</g>
		</g>
	</g>
</g>
</svg>
